<svg version="1.1" id="Layer_1" xmlns="http://www.w3.org/2000/svg" xmlns:xlink="http://www.w3.org/1999/xlink" x="0px" y="0px"
	 width="100%" viewBox="0 0 368 367" enable-background="new 0 0 368 367" xml:space="preserve">
<path fill="#D56A35" opacity="1.000000" stroke="none" 
	d="
M369.000000,126.000000 
	C369.000000,206.999969 369.000000,287.499939 369.000000,367.999939 
	C246.333405,367.999939 123.666809,367.999939 1.000164,367.999969 
	C1.000109,245.666779 1.000109,123.333565 1.000054,1.000262 
	C123.666504,1.000175 246.333008,1.000175 368.999756,1.000087 
	C369.000000,42.500000 369.000000,84.000000 369.000000,126.000000 
M362.074432,192.195618 
	C362.033051,187.127411 361.991699,182.059219 362.060913,176.104202 
	C358.680542,122.762497 336.110687,79.192680 294.838959,45.446426 
	C274.028320,28.430397 250.386368,16.802797 223.327194,10.723009 
	C218.211456,9.831932 213.095703,8.940854 207.331436,7.856312 
	C205.190582,7.816284 203.003677,8.047898 200.916031,7.694020 
	C181.014145,4.320480 161.432144,6.266343 141.184753,11.035768 
	C140.043167,11.268064 138.883362,11.434108 137.762619,11.742187 
	C87.245102,25.628626 49.248158,55.498089 24.218639,101.494179 
	C12.455896,123.110260 5.408282,146.287048 3.879674,171.811005 
	C3.959348,181.529144 4.039023,191.247299 4.026170,201.863251 
	C11.054198,265.824493 42.977081,313.346497 99.063232,344.459106 
	C122.545174,357.485199 148.022156,364.233337 175.917480,365.021088 
	C193.178207,365.618408 210.260834,364.504639 227.570496,359.637177 
	C228.537735,359.325165 229.504959,359.013153 231.241714,358.584961 
	C288.852570,341.374084 328.479218,304.526459 350.898804,248.927490 
	C351.506653,247.420090 351.604218,245.706940 352.349548,243.686844 
	C352.895996,242.450470 353.442444,241.214081 354.125153,239.233429 
	C358.957916,224.201538 361.803650,208.833130 362.074432,192.195618 
z"/>
<path fill="#EBC1A3" opacity="1.000000" stroke="none" 
	d="
M174.984695,364.898773 
	C148.022156,364.233337 122.545174,357.485199 99.063232,344.459106 
	C42.977081,313.346497 11.054198,265.824493 4.351758,201.412415 
	C5.049773,200.964981 5.422199,200.968369 5.890441,201.385498 
	C7.486165,210.629517 8.500954,219.575500 10.574021,228.269119 
	C17.709597,258.192871 32.042702,284.419678 53.102688,306.749817 
	C86.130180,341.769165 126.985474,360.265137 174.984131,363.411377 
	C174.984436,364.105499 174.984573,364.502136 174.984695,364.898773 
z"/>
<path fill="#EBC2A5" opacity="1.000000" stroke="none" 
	d="
M223.994598,11.064220 
	C250.386368,16.802797 274.028320,28.430397 294.838959,45.446426 
	C336.110687,79.192680 358.680542,122.762497 361.714844,176.545807 
	C360.981018,176.982330 360.593323,176.977234 360.135895,176.537109 
	C357.249390,131.799316 340.628357,93.516632 309.712250,61.625889 
	C285.924530,37.088245 257.095184,21.217888 224.022034,12.587882 
	C224.007492,11.876874 224.001038,11.470548 223.994598,11.064220 
z"/>
<path fill="#EBC1A3" opacity="1.000000" stroke="none" 
	d="
M4.063427,171.019684 
	C5.408282,146.287048 12.455896,123.110260 24.218639,101.494179 
	C49.248158,55.498089 87.245102,25.628626 137.762619,11.742187 
	C138.883362,11.434108 140.043167,11.268064 141.467117,11.279368 
	C141.499817,12.016228 141.250153,12.509486 140.657013,13.137215 
	C100.183121,23.601376 67.262215,44.973267 41.872288,77.764793 
	C20.590191,105.250992 9.254948,136.633987 5.478606,171.031586 
	C4.818179,171.028229 4.440804,171.023956 4.063427,171.019684 
z"/>
<path fill="#EBC1A3" opacity="1.000000" stroke="none" 
	d="
M351.939697,244.089722 
	C351.604218,245.706940 351.506653,247.420090 350.898804,248.927490 
	C328.479218,304.526459 288.852570,341.374084 230.559387,358.257874 
	C229.675156,357.678162 229.473282,357.425537 229.600983,357.027283 
	C277.248413,343.025787 313.401215,314.928772 337.794556,271.996979 
	C340.360748,267.480560 341.791168,262.328949 343.892212,257.534973 
	C345.856750,253.052612 348.012390,248.653992 350.390991,244.170593 
	C351.111908,244.111694 351.525818,244.100708 351.939697,244.089722 
z"/>
<path fill="#EBC2A5" opacity="1.000000" stroke="none" 
	d="
M141.000473,13.002743 
	C141.250153,12.509486 141.499817,12.016228 141.875412,11.276896 
	C161.432144,6.266343 181.014145,4.320480 200.916031,7.694020 
	C203.003677,8.047898 205.190582,7.816284 207.659058,8.257577 
	C207.985016,9.064904 207.983337,9.470966 207.558838,9.870751 
	C184.903992,6.972975 162.864212,8.133014 141.000473,13.002743 
z"/>
<path fill="#E9B797" opacity="1.000000" stroke="none" 
	d="
M175.451080,364.959930 
	C174.984573,364.502136 174.984436,364.105499 175.450226,363.352417 
	C182.683395,363.174164 189.536987,364.111023 196.197708,363.352966 
	C206.206161,362.213867 216.079453,359.887451 226.121658,358.275330 
	C226.475433,358.892578 226.717773,359.300323 226.960114,359.708099 
	C210.260834,364.504639 193.178207,365.618408 175.451080,364.959930 
z"/>
<path fill="#EBC2A5" opacity="1.000000" stroke="none" 
	d="
M361.953979,193.008209 
	C361.803650,208.833130 358.957916,224.201538 353.679260,239.657623 
	C352.727020,240.111603 352.220642,240.141403 351.794250,239.765442 
	C356.842926,224.310196 359.427826,208.830521 360.521698,193.028351 
	C361.190125,193.020493 361.572052,193.014343 361.953979,193.008209 
z"/>
<path fill="#EECDB4" opacity="1.000000" stroke="none" 
	d="
M3.971550,171.415344 
	C4.440804,171.023956 4.818179,171.028229 5.496902,171.452911 
	C5.797041,181.572784 5.795833,191.272278 5.794625,200.971756 
	C5.422199,200.968369 5.049773,200.964981 4.398022,200.963516 
	C4.039023,191.247299 3.959348,181.529144 3.971550,171.415344 
z"/>
<path fill="#E9B797" opacity="1.000000" stroke="none" 
	d="
M207.981644,9.877028 
	C207.983337,9.470966 207.985016,9.064904 207.983337,8.354309 
	C213.095703,8.940854 218.211456,9.831932 223.660889,10.893615 
	C224.001038,11.470548 224.007492,11.876874 223.615662,12.567280 
	C218.138794,11.859914 213.060226,10.868470 207.981644,9.877028 
z"/>
<path fill="#E9B797" opacity="1.000000" stroke="none" 
	d="
M362.014221,192.601913 
	C361.572052,193.014343 361.190125,193.020493 360.457367,192.600861 
	C360.045105,190.448303 359.983643,188.721542 359.980499,186.623291 
	C359.999023,185.503281 359.959290,184.754761 359.968506,183.568512 
	C360.080170,181.077911 360.142883,179.025024 360.205597,176.972153 
	C360.593323,176.977234 360.981018,176.982330 361.659546,176.989227 
	C361.991699,182.059219 362.033051,187.127411 362.014221,192.601913 
z"/>
<path fill="#D66E39" opacity="1.000000" stroke="none" 
	d="
M351.714233,240.171188 
	C352.220642,240.141403 352.727020,240.111603 353.611145,240.029755 
	C353.442444,241.214081 352.895996,242.450470 352.144623,243.888275 
	C351.525818,244.100708 351.111908,244.111694 350.433655,243.850220 
	C350.684296,242.442230 351.199280,241.306702 351.714233,240.171188 
z"/>
<path fill="#EBC1A3" opacity="1.000000" stroke="none" 
	d="
M227.265289,359.672638 
	C226.717773,359.300323 226.475433,358.892578 226.440140,358.157593 
	C227.521927,357.611206 228.396667,357.392059 229.271393,357.172913 
	C229.473282,357.425537 229.675156,357.678162 230.174622,358.315979 
	C229.504959,359.013153 228.537735,359.325165 227.265289,359.672638 
z"/>
<path fill="#D56A35" opacity="1.000000" stroke="none" 
	d="
M229.600983,357.027283 
	C228.396667,357.392059 227.521927,357.611206 226.328705,357.948120 
	C216.079453,359.887451 206.206161,362.213867 196.197708,363.352966 
	C189.536987,364.111023 182.683395,363.174164 175.450027,363.054901 
	C126.985474,360.265137 86.130180,341.769165 53.102688,306.749817 
	C32.042702,284.419678 17.709597,258.192871 10.574021,228.269119 
	C8.500954,219.575500 7.486165,210.629517 5.890441,201.385498 
	C5.795833,191.272278 5.797041,181.572784 5.779953,171.451981 
	C9.254948,136.633987 20.590191,105.250992 41.872288,77.764793 
	C67.262215,44.973267 100.183121,23.601376 140.657013,13.137213 
	C162.864212,8.133014 184.903992,6.972975 207.558838,9.870750 
	C213.060226,10.868470 218.138794,11.859914 223.623749,12.871960 
	C257.095184,21.217888 285.924530,37.088245 309.712250,61.625889 
	C340.628357,93.516632 357.249390,131.799316 360.135895,176.537109 
	C360.142883,179.025024 360.080170,181.077911 359.735779,183.697266 
	C359.610138,185.174088 359.766174,186.084442 359.922211,186.994781 
	C359.983643,188.721542 360.045105,190.448303 360.170868,192.602570 
	C359.427826,208.830521 356.842926,224.310196 351.794250,239.765427 
	C351.199280,241.306702 350.684296,242.442230 350.126617,243.898132 
	C348.012390,248.653992 345.856750,253.052612 343.892212,257.534973 
	C341.791168,262.328949 340.360748,267.480560 337.794556,271.996979 
	C313.401215,314.928772 277.248413,343.025787 229.600983,357.027283 
M136.471069,43.668812 
	C136.098450,43.480923 135.725815,43.293037 134.736649,42.836449 
	C131.736053,42.181175 128.735458,41.525898 125.204170,40.754730 
	C127.584198,38.631207 133.107956,40.505051 131.083588,35.053146 
	C125.442253,33.896885 121.203979,35.370022 119.640694,39.233063 
	C118.124207,42.980434 119.660866,45.634296 123.137764,48.586517 
	C123.173241,48.967365 123.208710,49.348209 123.126236,50.493649 
	C123.126236,51.867496 123.126236,53.241341 123.126236,54.547913 
	C130.988602,55.205376 134.303207,53.561451 137.756592,47.828751 
	C138.594315,47.512012 139.432037,47.195278 140.667618,47.400551 
	C141.873947,48.006908 143.080261,48.613262 144.286591,49.219620 
	C144.903809,47.811810 145.521027,46.403996 147.189331,44.396519 
	C147.530121,44.180729 147.870926,43.964939 148.853088,44.057903 
	C150.636475,44.980213 152.832306,47.055244 154.120743,46.594242 
	C157.169724,45.503311 159.882095,44.097404 163.263748,45.229645 
	C163.916061,45.448051 164.970703,44.464855 166.447205,43.880020 
	C167.489319,43.879147 168.531433,43.878269 170.162170,44.023197 
	C171.712280,44.023197 173.262390,44.023197 174.843826,44.023197 
	C174.999573,41.259800 175.119553,39.130901 175.830688,36.932175 
	C176.027390,36.905964 176.224075,36.879749 176.884872,37.119312 
	C177.279190,37.699532 177.673508,38.279751 177.903870,39.458088 
	C178.822144,40.238483 179.740417,41.018883 181.223068,42.177139 
	C182.849808,42.632675 184.476547,43.088215 186.103287,43.543751 
	C186.443253,42.175972 187.049210,40.812553 187.071701,39.439575 
	C187.131470,35.789391 187.175323,32.106480 186.737152,28.495852 
	C186.550049,26.953907 185.148468,25.559343 184.298752,24.097803 
	C183.233948,25.368582 181.635498,26.484896 181.213791,27.941816 
	C180.293823,31.120117 179.003769,30.803692 177.158249,28.912098 
	C176.232376,27.963120 175.579147,26.643723 174.502563,25.974564 
	C173.348862,25.257454 171.785187,24.704782 170.515259,24.885836 
	C169.911194,24.971956 169.317673,26.894960 169.172440,28.043163 
	C168.924316,30.004974 169.032913,32.011902 168.097839,34.002491 
	C166.903427,34.019600 165.709030,34.036709 164.220520,33.339714 
	C163.781662,30.919252 163.342804,28.498789 162.825653,25.646452 
	C160.942749,25.946505 159.438919,26.186150 157.780167,26.450483 
	C158.503311,32.943947 159.166702,38.900845 159.979187,46.196484 
	C155.507599,43.283070 152.207535,41.932907 153.539505,36.776329 
	C154.757095,32.062565 150.987137,28.143192 146.127808,28.669550 
	C143.081223,28.999552 140.108994,30.015949 136.850296,30.784037 
	C137.949234,35.959419 138.908737,40.478096 139.279190,44.846348 
	C138.520584,44.562840 137.761993,44.279331 136.471069,43.668812 
M122.986588,176.835983 
	C122.964226,177.671906 122.941864,178.507812 122.161789,179.387360 
	C115.906548,178.010712 113.971016,173.298615 113.402962,167.185959 
	C108.535637,167.185959 103.906715,167.185791 99.277786,167.185989 
	C88.340477,167.186462 88.340477,167.186539 88.470566,178.195145 
	C88.547974,184.745438 89.427544,185.917923 96.042450,185.534531 
	C100.537743,185.274002 102.838188,186.947083 104.994873,190.775604 
	C115.941711,210.208237 127.111992,229.517563 138.471786,248.711578 
	C139.803772,250.962143 142.783630,252.237427 145.437790,254.590424 
	C146.965805,255.057037 148.492218,255.923904 150.022095,255.930084 
	C171.930969,256.018829 193.840576,256.037872 215.748978,255.904175 
	C217.503387,255.893463 219.250198,254.637009 221.695755,253.746964 
	C223.616745,252.375748 226.271011,251.427887 227.345047,249.567657 
	C237.823883,231.418274 248.041061,213.117767 258.327332,194.857239 
	C261.448486,189.316498 264.530457,184.032593 272.529785,185.335037 
	C273.757629,185.534943 276.903137,182.256546 276.803894,180.741226 
	C276.513275,176.303497 279.641418,170.971985 274.275238,167.510239 
	C274.015045,167.342407 273.635590,167.299850 273.311554,167.299393 
	C265.386261,167.288208 257.460968,167.290649 249.927490,167.290649 
	C249.017151,169.979706 248.338104,171.985519 247.029785,174.060852 
	C245.656174,173.629196 244.282578,173.197556 243.084778,172.072693 
	C244.831284,168.794678 243.326828,166.422958 241.028931,164.132980 
	C226.539017,149.693039 212.075790,135.226257 197.631790,120.740395 
	C195.063309,118.164482 192.188843,116.211380 189.002792,119.176979 
	C185.588928,122.354614 187.394531,125.419830 190.152451,128.166031 
	C199.934174,137.906082 209.650085,147.712326 219.454880,157.428986 
	C225.237106,163.159225 231.139877,168.767822 236.989609,175.231171 
	C236.973938,176.566788 236.958252,177.902390 236.202316,179.274597 
	C232.585281,176.456573 228.706345,173.908493 225.434616,170.734528 
	C222.848251,168.225418 220.310806,167.093491 216.670105,167.116379 
	C193.212555,167.263763 169.753540,167.167542 146.295166,167.221695 
	C144.174881,167.226578 142.055740,167.729370 139.218964,168.084595 
	C135.785110,168.515106 134.250198,170.652496 133.683716,174.540955 
	C131.141632,176.096878 128.599564,177.652786 125.965439,178.530624 
	C125.643562,177.687088 125.321678,176.843536 125.206268,175.588593 
	C125.446815,175.196518 125.687370,174.804459 126.486298,173.979904 
	C142.203201,158.415054 157.920364,142.850449 173.634750,127.283058 
	C173.870331,127.049675 174.258926,126.782280 174.259781,126.529694 
	C174.267883,124.123970 175.132355,120.779663 173.908905,119.573853 
	C172.664978,118.347847 169.246933,118.812675 166.968506,119.342957 
	C165.583435,119.665306 164.548416,121.508369 163.364853,122.677116 
	C152.482193,133.423630 141.601440,144.172058 130.003616,154.982758 
	C125.602943,155.699265 123.278976,158.315140 122.597511,163.354202 
	C117.687813,168.784805 117.753876,170.737167 122.984795,175.058090 
	C122.992027,175.372025 122.997162,175.686005 122.986588,176.835983 
M134.066895,326.279022 
	C134.058685,324.550446 134.050476,322.821869 134.059418,320.292572 
	C132.069397,317.440613 130.286926,318.611420 129.405090,320.958923 
	C127.557350,325.877686 126.120926,330.950989 124.330818,336.537537 
	C128.702240,338.035614 132.557480,339.356781 136.412735,340.677979 
	C136.619354,340.128296 136.825974,339.578613 137.032608,339.028961 
	C135.136978,338.288452 133.161652,337.699341 131.372086,336.757324 
	C130.050690,336.061737 127.829643,334.556763 127.994003,334.019318 
	C128.533295,332.255859 129.978149,330.769379 131.590958,329.608826 
	C133.767563,330.267273 135.944153,330.925720 138.120758,331.584167 
	C138.340439,330.968201 138.560120,330.352234 138.779785,329.736237 
	C137.188675,328.806885 135.597549,327.877533 134.066895,326.279022 
M237.978485,330.406067 
	C238.962585,332.339844 239.946671,334.273590 240.930771,336.207367 
	C241.350449,336.041199 241.770142,335.875031 242.189835,335.708893 
	C241.696487,333.437622 241.203156,331.166382 241.400848,328.654541 
	C242.623138,328.136749 243.862762,327.656097 245.064407,327.094177 
	C248.617813,325.432495 250.098328,322.580536 248.679062,318.955231 
	C247.334229,315.520081 244.709045,313.679993 239.999252,315.329346 
	C233.461823,317.933624 233.463043,317.933289 235.337112,324.813538 
	C235.376114,324.956757 235.290298,325.134033 235.210678,326.137238 
	C236.017517,327.371552 236.824356,328.605865 237.978485,330.406067 
M106.633095,328.161621 
	C108.401237,329.044800 110.082932,330.251526 111.953514,330.751312 
	C117.879654,332.334686 123.243576,327.677917 122.870293,320.694977 
	C122.919807,320.092529 122.969315,319.490051 123.318153,318.547485 
	C122.373077,314.462982 117.721558,310.077759 113.943863,310.100037 
	C112.910225,310.106110 111.445625,311.037933 110.929260,311.963562 
	C108.673286,316.007568 106.568886,320.151672 104.729507,324.398041 
	C104.403015,325.151733 105.595924,326.563568 106.633095,328.161621 
M36.099705,159.101593 
	C36.099705,159.101593 35.975670,158.981491 36.076637,158.496689 
	C35.943581,157.457031 35.810520,156.417358 35.804714,156.371994 
	C33.506351,157.378754 31.777323,158.058304 30.129665,158.897614 
	C29.504013,159.216324 28.738247,159.844971 28.633867,160.437607 
	C28.529295,161.031326 28.996210,161.990982 29.518248,162.378265 
	C30.883472,163.391022 32.415627,164.178741 34.539677,165.450409 
	C35.977993,164.434372 37.835011,163.122574 39.692020,161.810760 
	C38.535915,160.947754 37.379807,160.084747 36.099705,159.101593 
M229.808823,325.291718 
	C223.891510,320.071686 218.947403,320.628601 214.519730,327.660858 
	C214.636642,330.672729 213.860962,334.110901 215.053925,336.608887 
	C217.638336,342.020508 223.558655,343.494507 228.020798,340.685242 
	C232.890686,337.619263 233.751160,331.596313 229.808823,325.291718 
M28.747606,224.729141 
	C29.164698,224.166077 29.581787,223.603027 30.730988,222.699753 
	C35.334621,221.413086 39.938255,220.126404 44.541885,218.839722 
	C44.321907,218.097427 44.101929,217.355133 43.881950,216.612839 
	C38.241028,218.102554 32.588688,219.551926 26.975691,221.140305 
	C26.370438,221.311569 25.485792,222.402634 25.590939,222.875946 
	C26.442274,226.708176 27.499254,230.494720 28.493521,234.295197 
	C29.156965,234.095764 29.820412,233.896317 30.483858,233.696869 
	C29.750681,230.797760 29.017504,227.898651 28.747606,224.729141 
M336.656281,208.897278 
	C336.452301,208.602310 336.248322,208.307358 335.971954,207.131485 
	C336.026642,206.135544 336.054352,205.137268 336.140717,204.144089 
	C336.502930,199.978394 334.700958,197.230347 330.528290,196.787643 
	C326.346710,196.343994 324.014099,198.782089 323.399780,202.804092 
	C323.055511,205.057999 322.968994,207.351257 322.713318,210.221832 
	C329.483246,211.008087 335.808289,211.742676 342.133362,212.477264 
	C342.220032,211.888626 342.306732,211.300003 342.393402,210.711365 
	C340.568481,210.263474 338.743530,209.815567 336.656281,208.897278 
M75.274834,292.505829 
	C72.511696,293.657227 69.748550,294.808624 66.522072,296.059692 
	C66.682159,296.680206 66.842247,297.300720 67.696342,298.065308 
	C69.529572,297.700745 71.362801,297.336212 73.253700,296.960175 
	C78.922516,298.791565 78.482384,303.450653 76.856895,308.603088 
	C77.488052,308.555725 78.119202,308.508331 78.750359,308.460968 
	C81.214287,302.003021 83.678215,295.545105 86.142143,289.087158 
	C85.478554,288.557190 84.814957,288.027222 84.151360,287.497253 
	C81.422462,289.314880 78.693565,291.132507 75.998451,292.995697 
	C75.998451,292.995697 75.958382,292.959015 75.274834,292.505829 
M332.652130,227.852783 
	C332.440674,227.570038 332.229187,227.287292 332.039734,226.200104 
	C332.159821,225.546127 332.259094,224.887512 332.403290,224.238892 
	C333.509338,219.263275 332.091492,216.121780 328.250397,215.059845 
	C324.529480,214.031174 320.438629,216.742004 319.211578,221.049438 
	C317.755615,226.160690 318.631348,227.452957 324.699646,229.030869 
	C328.080139,229.909882 331.460999,230.795883 334.870117,231.550171 
	C335.753235,231.745560 336.743378,231.457062 337.684357,231.390839 
	C337.720306,231.053528 337.756256,230.716217 337.792206,230.378891 
	C336.168488,229.689178 334.544739,228.999451 332.652130,227.852783 
M335.678406,236.976028 
	C333.280762,232.895554 331.095337,234.161377 328.086090,237.450348 
	C323.577881,237.450348 319.069641,237.450348 313.633881,237.450348 
	C317.333740,246.484741 324.432343,249.290100 330.264740,253.670563 
	C328.191101,250.363190 325.038177,248.158813 327.731995,243.342651 
	C328.971924,241.125839 329.667694,240.134491 332.087341,239.859924 
	C333.402893,239.710602 334.591919,238.446487 335.678406,236.976028 
M100.663757,311.113129 
	C99.439896,311.075409 98.216042,311.037720 96.791916,310.147369 
	C96.418755,306.107697 96.045593,302.068054 95.672432,298.028381 
	C95.123070,297.813843 94.573700,297.599274 94.024330,297.384705 
	C90.360649,302.519073 86.696960,307.653412 83.033279,312.787781 
	C83.562225,313.194122 84.091171,313.600494 84.620117,314.006836 
	C87.334740,310.544220 90.049362,307.081635 92.851868,303.506927 
	C96.648308,309.578400 90.580933,316.712280 96.031151,322.033020 
	C101.772118,317.570923 106.877846,309.797028 106.554176,305.152161 
	C104.631744,307.479187 103.107353,309.324371 100.663757,311.113129 
M302.038879,278.113312 
	C304.868011,280.372162 307.697144,282.631012 310.526276,284.889832 
	C310.954163,284.388641 311.382050,283.887451 311.809906,283.386292 
	C308.156158,280.110443 304.502411,276.834595 300.821289,272.937500 
	C300.104248,272.508545 299.387238,272.079620 297.938110,271.366821 
	C294.561035,271.391327 295.890198,273.587616 296.360107,275.101868 
	C297.429779,278.548737 298.705444,281.931702 300.120178,285.977692 
	C294.551086,285.242462 289.727356,284.605621 284.903656,283.968781 
	C284.714783,284.579468 284.525909,285.190186 284.337036,285.800873 
	C289.167480,289.914337 293.997925,294.027802 298.828400,298.141266 
	C299.250641,297.677917 299.672913,297.214539 300.095154,296.751160 
	C297.608948,294.176453 295.122711,291.601715 291.558197,287.910278 
	C296.335083,288.250641 299.464233,288.473572 303.214966,288.740814 
	C301.989319,284.619843 301.005096,281.310669 300.749207,277.909454 
	C300.991455,277.874847 301.233704,277.840240 302.038879,278.113312 
M84.267273,82.578201 
	C84.596100,82.196510 84.924927,81.814819 85.870049,81.344322 
	C92.359398,79.929932 87.738800,76.322701 87.124168,73.802071 
	C90.713326,70.750694 96.220787,76.040222 99.025574,70.182472 
	C95.102928,65.411980 91.140060,60.592567 86.898544,55.434273 
	C85.274933,56.964241 84.146500,58.027584 83.082581,59.030140 
	C84.498093,61.215454 85.625008,62.955227 86.854340,64.853111 
	C82.492638,67.141228 77.309105,61.257290 73.798462,66.952240 
	C75.694061,69.538185 77.445023,71.926826 79.129227,75.241089 
	C79.085716,77.065979 79.042206,78.890862 78.321083,80.629288 
	C74.831535,79.051277 71.413239,77.269348 67.812012,76.010918 
	C66.625031,75.596123 64.647232,76.140457 63.617348,76.972214 
	C62.712719,77.702812 61.870140,79.837921 62.304199,80.682587 
	C65.087074,86.097969 68.229507,91.328568 71.253754,96.619904 
	C71.888481,96.599892 72.523216,96.579872 73.157951,96.559860 
	C73.512421,94.662033 73.483620,92.567390 74.328789,90.921547 
	C75.180016,89.263901 77.076408,86.739082 78.205902,86.891022 
	C81.615273,87.349648 82.660599,85.471703 84.267273,82.578201 
M211.964859,46.955589 
	C213.625702,46.721695 215.609055,46.983181 216.882431,46.154148 
	C219.830399,44.234821 221.455811,44.767239 223.124695,47.779076 
	C223.941971,49.254017 225.831741,50.134663 227.783875,51.732697 
	C227.783875,44.779175 227.969574,39.192558 227.648560,33.635204 
	C227.571777,32.306023 225.967026,30.239010 224.777435,30.010876 
	C223.315277,29.730467 220.981247,30.555975 220.026749,31.723309 
	C217.323532,35.029362 215.131607,38.753475 211.310165,42.091850 
	C210.833405,42.022991 210.356628,41.954136 209.784546,41.136692 
	C209.192810,39.107964 208.601074,37.079235 207.748962,34.502991 
	C207.488617,33.955448 207.228271,33.407906 207.367508,32.368896 
	C209.485016,31.183905 210.503967,29.774284 208.176773,27.827982 
	C204.607788,24.843124 200.612473,24.374792 196.542587,26.463806 
	C192.330368,28.625866 190.906097,32.441795 191.495895,36.967697 
	C192.078873,41.441502 194.733826,44.249763 199.177139,44.988853 
	C202.400848,45.525074 205.696640,45.628036 209.489792,46.263805 
	C210.077759,46.478848 210.665741,46.693893 211.964859,46.955589 
M270.845001,59.896336 
	C270.897736,59.338047 270.950470,58.779755 271.699799,58.125736 
	C273.038818,57.439972 274.377869,56.754208 275.859222,55.995548 
	C273.010315,51.235840 269.925903,47.952747 264.664032,49.309719 
	C261.090576,50.231262 259.887726,53.154926 260.131805,57.073689 
	C259.761322,57.454323 259.390839,57.834957 258.311707,58.507263 
	C257.137238,59.286415 255.962738,60.065567 254.825027,60.820328 
	C258.249390,66.901352 262.983185,70.052170 266.693146,68.724960 
	C270.420013,67.391716 271.508362,64.470299 270.845001,59.896336 
M325.367615,121.348572 
	C326.772369,121.543030 328.177155,121.737495 329.581909,121.931961 
	C329.608978,120.748894 330.019714,119.399406 329.592133,118.413513 
	C328.230591,115.274239 326.557190,112.270226 324.825317,108.861801 
	C318.702332,111.865456 313.119049,114.604370 307.181580,117.517021 
	C308.928558,121.115158 310.232117,124.160110 311.879791,127.005814 
	C312.488739,128.057541 313.907562,128.640350 314.957001,129.437027 
	C315.486816,127.988884 316.016632,126.540749 317.459778,125.021812 
	C318.068298,124.974136 318.676819,124.926460 319.905640,124.937965 
	C321.125214,124.090393 322.344788,123.242821 324.139404,121.784355 
	C324.328735,121.578529 324.518066,121.372704 325.367615,121.348572 
M44.849464,111.413979 
	C43.994797,110.772835 43.140129,110.131699 42.285458,109.490562 
	C40.490528,112.309540 37.654179,114.992210 37.261169,117.994690 
	C36.992279,120.048950 39.787952,122.971748 41.891300,124.663818 
	C42.881706,125.460564 45.466461,124.275452 46.014996,124.190903 
	C47.768940,126.431076 48.940468,127.927383 50.309963,129.676529 
	C55.212402,125.124496 58.938431,121.048180 55.870045,114.495888 
	C55.746510,114.232086 56.639511,113.492256 57.511555,112.246284 
	C59.157272,111.716156 60.802986,111.186020 62.448708,110.655891 
	C61.108025,108.501640 59.767345,106.347382 58.090000,103.652168 
	C58.791935,102.696495 59.896324,101.192879 61.030640,99.648529 
	C62.551052,100.585709 63.469845,101.467163 64.541214,101.732460 
	C65.871979,102.061989 67.328926,101.881927 68.731377,101.921967 
	C68.303864,100.301781 68.406830,98.000763 67.355309,97.181435 
	C63.209923,93.951462 58.701885,91.186920 53.953220,87.997696 
	C52.849621,89.809113 52.049431,91.122520 51.219147,92.485321 
	C53.135410,94.057281 54.653614,95.302711 56.555126,96.862579 
	C55.370499,98.507484 54.286625,100.012489 53.181610,101.546852 
	C50.944641,100.332184 49.229183,99.400696 47.538132,98.482460 
	C44.227856,100.874397 44.148666,102.859787 47.626453,104.924408 
	C50.339020,106.534752 52.954010,108.333534 55.469257,110.237617 
	C56.232201,110.815186 56.518242,112.022728 56.833424,114.021889 
	C53.555298,113.985695 50.277172,113.949501 46.764114,113.416344 
	C46.225380,112.944038 45.686642,112.471741 44.849464,111.413979 
M240.013275,51.331192 
	C240.504517,54.637909 240.785767,58.136620 244.034622,57.765484 
	C246.123566,53.752914 247.569397,50.562992 249.384125,47.598927 
	C251.447189,44.229259 250.952438,40.027172 247.496704,38.000378 
	C244.711548,36.366871 241.576233,35.330360 238.454636,33.967133 
	C236.770874,37.395123 235.394302,40.197693 233.268433,43.065586 
	C228.989792,44.056393 229.791641,46.513344 231.373764,49.924686 
	C232.266693,51.125996 233.159622,52.327301 234.052551,53.528614 
	C235.148071,52.640842 236.243576,51.753071 238.553513,50.768509 
	C238.957275,50.725079 239.361038,50.681652 240.013275,51.331192 
M305.209137,113.798187 
	C305.875671,113.670723 306.989136,113.735138 307.139069,113.385887 
	C308.529694,110.146545 310.431702,108.293930 314.371918,107.867126 
	C318.325745,107.438858 320.428253,102.545944 318.656036,98.836990 
	C317.269226,95.934738 315.221954,93.348076 313.245483,90.275017 
	C307.443573,94.130119 302.253387,97.578781 296.806824,101.197807 
	C298.021240,102.895447 298.855743,104.061974 299.699249,105.241096 
	C301.600800,104.538391 303.213318,103.942490 304.473450,103.476830 
	C304.586609,106.938492 304.690308,110.111931 305.209137,113.798187 
M290.453247,93.164345 
	C295.889374,95.580185 299.986359,95.096191 303.142426,91.425186 
	C306.141083,87.937271 306.907990,83.966461 304.505493,79.881409 
	C302.166107,75.903687 298.310852,73.611908 293.990234,75.164787 
	C291.072815,76.213341 288.049011,78.898933 286.603699,81.655083 
	C284.460297,85.742325 286.309021,89.730576 290.453247,93.164345 
M105.447067,66.499100 
	C105.731796,60.953018 106.118263,60.810459 111.850372,61.706978 
	C113.258934,61.927280 114.887367,60.741825 117.445732,59.838676 
	C112.030357,55.160858 107.618195,51.176746 102.964790,47.497761 
	C102.176170,46.874283 100.101318,47.146580 99.073326,47.761574 
	C98.034630,48.382980 96.772697,50.100044 96.964333,51.068985 
	C98.140083,57.013950 99.700470,62.882839 101.263458,69.314766 
	C103.034676,68.239845 103.993546,67.657921 105.447067,66.499100 
M288.188232,63.362206 
	C286.672119,62.066154 285.077850,60.849823 283.656860,59.456718 
	C281.046417,56.897453 279.446594,57.633919 278.326111,60.846001 
	C279.385651,62.161743 280.387512,63.405861 281.509521,64.799187 
	C278.490875,68.537109 275.613617,72.099968 272.557037,75.884850 
	C274.060791,77.142174 275.159698,78.060989 276.489410,79.172798 
	C279.866425,75.460182 283.045654,71.965050 286.152557,68.549400 
	C287.907135,69.596588 289.163239,70.346268 290.528931,71.161354 
	C295.682922,67.093147 290.256439,65.952293 288.188232,63.362206 
M56.985355,254.033112 
	C52.967705,256.660431 48.906883,259.225342 44.959583,261.954407 
	C43.824814,262.738953 42.017220,264.631470 42.213535,264.941132 
	C44.384018,268.364777 46.214752,272.861816 49.452915,274.560028 
	C55.047638,277.494171 56.072487,268.172668 61.518150,268.354431 
	C62.282421,268.379944 64.157158,265.298920 63.771015,264.496613 
	C61.929585,260.670624 59.484962,257.134979 56.985355,254.033112 
M268.370636,304.352997 
	C266.385437,303.955597 264.400208,303.558197 262.415009,303.160797 
	C262.144196,303.603058 261.873383,304.045319 261.602600,304.487610 
	C265.405060,309.507050 269.207520,314.526520 273.009979,319.545959 
	C273.540375,319.164795 274.070801,318.783600 274.601196,318.402435 
	C272.166840,314.832458 269.732483,311.262512 266.570740,306.625793 
	C273.658661,308.240021 279.585754,309.589874 285.512848,310.939728 
	C285.823944,310.438873 286.135071,309.937988 286.446167,309.437134 
	C282.633911,304.407227 278.821625,299.377350 275.009369,294.347443 
	C274.473633,294.717712 273.937897,295.087982 273.402161,295.458252 
	C274.624451,297.281311 275.822968,299.120911 277.075684,300.922821 
	C278.333832,302.732452 279.645935,304.504547 280.934418,306.293060 
	C280.679321,306.608185 280.424225,306.923309 280.169128,307.238434 
	C276.493988,306.353790 272.818878,305.469147 268.370636,304.352997 
M146.928833,324.652313 
	C145.932846,329.352722 144.868057,334.040344 143.988113,338.762360 
	C143.761383,339.979218 143.620270,341.725037 144.286118,342.509766 
	C147.895248,346.763397 159.020355,343.923096 160.834717,338.415619 
	C163.911072,329.077271 157.766342,322.514679 146.928833,324.652313 
M63.516346,288.984955 
	C64.744362,287.211029 65.778183,286.058746 68.606766,286.304626 
	C73.423317,286.723236 77.602028,281.168152 75.384300,277.950714 
	C73.450874,275.145691 70.918434,272.753571 68.322083,269.806000 
	C63.133938,274.045715 58.249329,278.037384 53.364719,282.029053 
	C53.740898,282.496521 54.117073,282.964020 54.493252,283.431488 
	C56.389984,282.368530 58.286716,281.305542 61.713936,279.384857 
	C61.858646,282.548431 61.884232,284.632263 62.083893,286.699280 
	C62.160458,287.491882 62.634346,288.246155 63.516346,288.984955 
M174.195419,343.494659 
	C174.372742,348.528381 178.076813,347.436829 181.267593,347.898132 
	C185.488403,348.508362 187.191910,346.138458 187.954117,342.905914 
	C188.772186,339.436523 186.311935,337.808533 183.370163,336.871399 
	C182.102859,336.467651 180.590836,336.438080 179.587372,335.698975 
	C178.306396,334.755554 177.427521,333.266205 176.375336,332.012146 
	C177.845413,331.170532 179.252075,329.812958 180.802170,329.622498 
	C182.600586,329.401489 184.524918,330.205048 186.394592,330.563873 
	C186.548508,330.064728 186.702423,329.565582 186.856339,329.066406 
	C184.569427,328.430450 182.047073,326.883057 180.057236,327.397095 
	C177.747650,327.993774 174.946671,330.005707 174.082108,332.110962 
	C172.742462,335.373047 175.591782,337.092499 178.542664,338.009277 
	C180.128906,338.502045 181.856339,338.781158 183.233047,339.624969 
	C184.191635,340.212494 185.309021,341.693298 185.173126,342.597321 
	C185.030945,343.543182 183.435486,345.011108 182.544037,344.963501 
	C179.971100,344.826019 177.432785,344.040344 174.195419,343.494659 
M28.661886,209.999130 
	C26.932564,211.495285 25.203241,212.991440 23.473917,214.487595 
	C23.879360,214.975586 24.284803,215.463562 24.690245,215.951538 
	C30.644192,212.473648 36.598137,208.995758 42.552086,205.517868 
	C42.443157,204.887558 42.334232,204.257248 42.225307,203.626938 
	C35.546955,201.811096 28.868601,199.995270 22.190248,198.179428 
	C21.798550,198.827194 21.406851,199.474960 21.015152,200.122742 
	C26.607010,201.019897 29.450205,203.875748 28.661886,209.999130 
M206.830658,338.668427 
	C207.306229,340.834351 207.781799,343.000244 208.257370,345.166138 
	C208.850372,345.028412 209.443359,344.890686 210.036346,344.752930 
	C209.255585,338.468475 208.474823,332.184021 207.694046,325.899567 
	C205.848984,328.908997 205.702576,332.873077 203.754593,334.207703 
	C201.354538,335.851990 197.453979,335.306122 194.013626,335.729980 
	C193.768616,337.719025 193.565125,339.371094 193.361633,341.023163 
	C195.939850,337.244873 200.819321,335.991150 206.830658,338.668427 
M309.127350,260.514893 
	C309.766205,262.101898 310.405060,263.688904 311.161743,265.568665 
	C306.819702,265.848785 303.271454,266.077698 299.723206,266.306610 
	C299.770508,266.618591 299.817810,266.930573 299.865112,267.242554 
	C306.499146,268.311310 313.133209,269.380066 318.757599,270.286163 
	C315.498779,265.529022 311.660431,259.925903 307.822052,254.322769 
	C307.502319,254.461258 307.182617,254.599747 306.862885,254.738235 
	C307.509186,256.438110 308.155487,258.138031 309.127350,260.514893 
M31.235531,242.198364 
	C32.523903,245.447205 33.812279,248.696030 35.100655,251.944870 
	C35.664669,251.746765 36.228683,251.548660 36.792698,251.350540 
	C35.747478,248.053513 34.702255,244.756485 33.576557,241.205597 
	C39.069191,238.907822 44.107258,236.800217 49.145325,234.692612 
	C48.810867,233.932785 48.476414,233.172958 48.141960,232.413132 
	C42.419712,235.099411 36.695030,237.780579 30.991369,240.505737 
	C30.868256,240.564575 30.986296,241.128128 31.235531,242.198364 
M260.494202,317.075867 
	C262.072052,319.546265 263.649902,322.016663 265.227753,324.487030 
	C265.494659,319.002502 258.492310,308.039276 255.070709,307.726654 
	C256.885559,310.873413 258.497894,313.669037 260.494202,317.075867 
M139.194000,318.950928 
	C139.088074,319.023651 138.982132,319.096375 138.876221,319.169098 
	C138.979172,319.149170 139.082123,319.129242 139.194000,318.950928 
M136.494232,321.476746 
	C136.494232,321.476746 136.504868,321.512268 136.494232,321.476746 
z"/>
<path fill="#D56B36" opacity="1.000000" stroke="none" 
	d="
M359.980499,186.623291 
	C359.766174,186.084442 359.610138,185.174088 359.686829,184.134979 
	C359.959290,184.754761 359.999023,185.503281 359.980499,186.623291 
z"/>
<path fill="#F8F3E5" opacity="1.000000" stroke="none" 
	d="
M144.999557,253.964844 
	C142.783630,252.237427 139.803772,250.962143 138.471786,248.711578 
	C127.111992,229.517563 115.941711,210.208237 104.994873,190.775604 
	C102.838188,186.947083 100.537743,185.274002 96.042450,185.534531 
	C89.427544,185.917923 88.547974,184.745438 88.470566,178.195145 
	C88.340477,167.186539 88.340477,167.186462 99.277786,167.185989 
	C103.906715,167.185791 108.535637,167.185959 113.402962,167.185959 
	C113.971016,173.298615 115.906548,178.010712 122.780914,179.508026 
	C124.285851,179.488693 125.171669,179.348709 126.057480,179.208710 
	C128.599564,177.652786 131.141632,176.096878 134.129211,174.103516 
	C136.361816,171.777695 138.148941,169.889313 139.936066,168.000946 
	C142.055740,167.729370 144.174881,167.226578 146.295166,167.221695 
	C169.753540,167.167542 193.212555,167.263763 216.670105,167.116379 
	C220.310806,167.093491 222.848251,168.225418 225.434616,170.734528 
	C228.706345,173.908493 232.585281,176.456573 236.870636,179.424469 
	C242.084106,179.837387 245.638306,178.304169 247.659073,173.991333 
	C248.338104,171.985519 249.017151,169.979706 249.927490,167.290649 
	C257.460968,167.290649 265.386261,167.288208 273.311554,167.299393 
	C273.635590,167.299850 274.015045,167.342407 274.275238,167.510239 
	C279.641418,170.971985 276.513275,176.303497 276.803894,180.741226 
	C276.903137,182.256546 273.757629,185.534943 272.529785,185.335037 
	C264.530457,184.032593 261.448486,189.316498 258.327332,194.857239 
	C248.041061,213.117767 237.823883,231.418274 227.345047,249.567657 
	C226.271011,251.427887 223.616745,252.375748 220.888229,253.755280 
	C195.053650,253.830673 170.026611,253.897751 144.999557,253.964844 
M219.606537,212.499985 
	C219.601913,206.186661 219.896774,199.850006 219.408310,193.574341 
	C219.263672,191.715942 217.138748,188.826096 215.523010,188.521500 
	C212.426346,187.937744 211.642746,190.745590 211.649368,193.532913 
	C211.678131,205.661118 211.663208,217.789413 211.667068,229.917679 
	C211.667938,232.615753 212.250839,235.568695 215.490952,234.924011 
	C217.122787,234.599319 219.224350,231.784210 219.404388,229.929352 
	C219.931610,224.497360 219.600998,218.982117 219.606537,212.499985 
M164.453491,192.344681 
	C164.442749,204.813919 164.421478,217.283173 164.429688,229.752411 
	C164.431427,232.403198 164.851089,235.006149 168.227219,235.098801 
	C171.550629,235.190002 172.278976,232.824112 172.277771,230.036453 
	C172.272430,217.733292 172.378937,205.428207 172.149750,193.129318 
	C172.120316,191.549667 170.364426,190.002213 169.408325,188.439835 
	C167.785828,189.465500 166.163330,190.491180 164.453491,192.344681 
M180.085724,200.559479 
	C180.096130,210.525955 179.929214,220.498947 180.296143,230.452286 
	C180.355484,232.061447 182.787781,233.583115 184.123199,235.145233 
	C185.421753,233.722000 187.814148,232.323929 187.847549,230.871582 
	C188.141647,218.088364 188.140900,205.292542 187.839951,192.509598 
	C187.806213,191.076523 185.367447,189.700073 184.043976,188.297363 
	C182.739090,189.735031 180.812241,190.978043 180.286087,192.659409 
	C179.622055,194.781433 180.100418,197.260971 180.085724,200.559479 
M203.843201,218.489502 
	C203.834259,210.021057 204.034241,201.542816 203.637070,193.092606 
	C203.559250,191.436569 201.170059,189.889191 199.846909,188.291702 
	C198.534210,189.706680 196.115448,191.096008 196.081955,192.540649 
	C195.785690,205.319031 195.789322,218.110062 196.084961,230.888565 
	C196.118439,232.336273 198.499313,233.729691 199.791687,235.148300 
	C201.122421,233.745392 203.357849,232.483536 203.603012,230.911346 
	C204.184784,227.180191 203.823303,223.301926 203.843201,218.489502 
M148.776810,225.409698 
	C148.777451,226.405960 148.748093,227.403336 148.784363,228.398285 
	C148.890762,231.317596 148.188980,235.058441 152.647751,235.047668 
	C156.924774,235.037323 156.693436,231.464325 156.697479,228.439667 
	C156.712753,216.982666 156.685196,205.525558 156.712875,194.068604 
	C156.719925,191.154053 156.176849,188.421967 152.685806,188.377548 
	C149.050110,188.331299 148.761368,191.191132 148.768753,194.045685 
	C148.794968,204.174286 148.777390,214.303024 148.776810,225.409698 
z"/>
<path fill="#F8F3E5" opacity="1.000000" stroke="none" 
	d="
M130.720139,154.919937 
	C141.601440,144.172058 152.482193,133.423630 163.364853,122.677116 
	C164.548416,121.508369 165.583435,119.665306 166.968506,119.342957 
	C169.246933,118.812675 172.664978,118.347847 173.908905,119.573853 
	C175.132355,120.779663 174.267883,124.123970 174.259781,126.529694 
	C174.258926,126.782280 173.870331,127.049675 173.634750,127.283058 
	C157.920364,142.850449 142.203201,158.415054 125.837387,174.162750 
	C124.451523,174.426193 123.714577,174.506790 122.977623,174.587372 
	C117.753876,170.737167 117.687813,168.784805 123.052475,162.906509 
	C125.911674,159.945862 128.315903,157.432892 130.720139,154.919937 
z"/>
<path fill="#F8F3E5" opacity="1.000000" stroke="none" 
	d="
M236.988434,174.431137 
	C231.139877,168.767822 225.237106,163.159225 219.454880,157.428986 
	C209.650085,147.712326 199.934174,137.906082 190.152451,128.166031 
	C187.394531,125.419830 185.588928,122.354614 189.002792,119.176979 
	C192.188843,116.211380 195.063309,118.164482 197.631790,120.740395 
	C212.075790,135.226257 226.539017,149.693039 241.028931,164.132980 
	C243.326828,166.422958 244.831284,168.794678 242.644287,172.584045 
	C240.465347,173.540665 238.726898,173.985901 236.988434,174.431137 
z"/>
<path fill="#F6EAD9" opacity="1.000000" stroke="none" 
	d="
M139.868225,44.996765 
	C138.908737,40.478096 137.949234,35.959419 136.850296,30.784037 
	C140.108994,30.015949 143.081223,28.999552 146.127808,28.669550 
	C150.987137,28.143192 154.757095,32.062565 153.539505,36.776329 
	C152.207535,41.932907 155.507599,43.283070 159.979187,46.196484 
	C159.166702,38.900845 158.503311,32.943947 157.780167,26.450483 
	C159.438919,26.186150 160.942749,25.946505 162.825653,25.646452 
	C163.342804,28.498789 163.781662,30.919252 164.328217,34.124706 
	C164.903854,37.951790 165.371796,40.993881 165.839737,44.035965 
	C164.970703,44.464855 163.916061,45.448051 163.263748,45.229645 
	C159.882095,44.097404 157.169724,45.503311 154.120743,46.594242 
	C152.832306,47.055244 150.636475,44.980213 148.324493,43.618843 
	C147.243362,43.785252 146.690811,44.390720 146.138245,44.996185 
	C145.521027,46.403996 144.903809,47.811810 144.286591,49.219620 
	C143.080261,48.613262 141.873947,48.006908 140.478790,46.812889 
	C140.149384,45.815742 140.008804,45.406254 139.868225,44.996765 
z"/>
<path fill="#F6EAD9" opacity="1.000000" stroke="none" 
	d="
M79.195984,74.315468 
	C77.445023,71.926826 75.694061,69.538185 73.798462,66.952240 
	C77.309105,61.257290 82.492638,67.141228 86.854340,64.853111 
	C85.625008,62.955227 84.498093,61.215454 83.082581,59.030140 
	C84.146500,58.027584 85.274933,56.964241 86.898544,55.434273 
	C91.140060,60.592567 95.102928,65.411980 99.025574,70.182472 
	C96.220787,76.040222 90.713326,70.750694 87.124168,73.802071 
	C87.738800,76.322701 92.359398,79.929932 85.411064,81.110504 
	C83.033379,78.689621 81.114685,76.502541 79.195984,74.315468 
M87.575363,65.537537 
	C87.575363,65.537537 87.267891,65.374962 87.267891,65.374962 
	C87.267891,65.374962 87.320557,65.708427 87.575363,65.537537 
z"/>
<path fill="#F6EAD9" opacity="1.000000" stroke="none" 
	d="
M168.991699,33.999878 
	C169.032913,32.011902 168.924316,30.004974 169.172440,28.043163 
	C169.317673,26.894960 169.911194,24.971956 170.515259,24.885836 
	C171.785187,24.704782 173.348862,25.257454 174.502563,25.974564 
	C175.579147,26.643723 176.232376,27.963120 177.158249,28.912098 
	C179.003769,30.803692 180.293823,31.120117 181.213791,27.941816 
	C181.635498,26.484896 183.233948,25.368582 184.298752,24.097805 
	C185.148468,25.559343 186.550049,26.953907 186.737152,28.495852 
	C187.175323,32.106480 187.131470,35.789391 187.071701,39.439575 
	C187.049210,40.812553 186.443253,42.175972 186.103287,43.543751 
	C184.476547,43.088215 182.849808,42.632675 180.801086,41.685719 
	C179.608658,40.416191 178.838242,39.638081 178.067810,38.859970 
	C177.673508,38.279751 177.279190,37.699532 176.509552,36.780327 
	C175.836014,36.628227 175.537766,36.815117 175.239532,37.002003 
	C175.119553,39.130901 174.999573,41.259800 174.843826,44.023197 
	C173.262390,44.023197 171.712280,44.023197 169.870987,43.502544 
	C169.383774,39.987885 169.187729,36.993881 168.991699,33.999878 
M180.400131,31.851374 
	C180.465805,31.661346 180.531464,31.471319 180.597122,31.281290 
	C180.407806,31.341923 180.218491,31.402555 180.400131,31.851374 
z"/>
<path fill="#F6EAD9" opacity="1.000000" stroke="none" 
	d="
M305.001587,113.541779 
	C304.690308,110.111931 304.586609,106.938492 304.473450,103.476830 
	C303.213318,103.942490 301.600800,104.538391 299.699249,105.241096 
	C298.855743,104.061974 298.021240,102.895447 296.806824,101.197807 
	C302.253387,97.578781 307.443573,94.130119 313.245483,90.275017 
	C315.221954,93.348076 317.269226,95.934738 318.656036,98.836990 
	C320.428253,102.545944 318.325745,107.438858 314.371918,107.867126 
	C310.431702,108.293930 308.529694,110.146545 307.139069,113.385887 
	C306.989136,113.735138 305.875671,113.670723 305.001587,113.541779 
z"/>
<path fill="#F5E8D6" opacity="1.000000" stroke="none" 
	d="
M234.017731,43.000259 
	C235.394302,40.197693 236.770874,37.395123 238.454636,33.967133 
	C241.576233,35.330360 244.711548,36.366871 247.496704,38.000378 
	C250.952438,40.027172 251.447189,44.229259 249.384125,47.598927 
	C247.569397,50.562992 246.123566,53.752914 244.034622,57.765484 
	C240.785767,58.136620 240.504517,54.637909 239.660263,50.612751 
	C238.651199,50.217972 237.995148,50.541637 237.339096,50.865303 
	C236.243576,51.753071 235.148071,52.640842 234.052551,53.528610 
	C233.159622,52.327301 232.266693,51.125996 231.632690,49.307777 
	C232.600311,46.794003 233.309021,44.897129 234.017731,43.000259 
z"/>
<path fill="#F5E8D6" opacity="1.000000" stroke="none" 
	d="
M208.009338,35.050507 
	C208.601074,37.079235 209.192810,39.107964 209.678497,41.762726 
	C209.368408,43.567234 209.164352,44.745712 208.960281,45.924191 
	C205.696640,45.628036 202.400848,45.525074 199.177139,44.988853 
	C194.733826,44.249763 192.078873,41.441502 191.495895,36.967697 
	C190.906097,32.441795 192.330368,28.625866 196.542587,26.463806 
	C200.612473,24.374792 204.607788,24.843124 208.176773,27.827982 
	C210.503967,29.774284 209.485016,31.183905 206.797150,32.531998 
	C205.666428,32.353863 205.140060,31.810207 204.539307,31.709265 
	C202.723587,31.404171 200.148270,30.446390 199.220840,31.268322 
	C197.904709,32.434750 197.074768,35.088596 197.390747,36.866230 
	C197.652237,38.337395 199.874039,39.460114 201.227310,40.737213 
	C201.584915,40.463665 201.942535,40.190121 202.300140,39.916576 
	C202.300140,38.393684 202.300140,36.870796 202.300140,35.050507 
	C204.425415,35.050507 206.217377,35.050507 208.009338,35.050507 
z"/>
<path fill="#F6EAD9" opacity="1.000000" stroke="none" 
	d="
M57.022717,112.941727 
	C56.518242,112.022728 56.232201,110.815186 55.469257,110.237617 
	C52.954010,108.333534 50.339020,106.534752 47.626453,104.924408 
	C44.148666,102.859787 44.227856,100.874397 47.538132,98.482460 
	C49.229183,99.400696 50.944641,100.332184 53.181610,101.546852 
	C54.286625,100.012489 55.370499,98.507484 56.555126,96.862579 
	C54.653614,95.302711 53.135410,94.057281 51.219147,92.485321 
	C52.049431,91.122520 52.849621,89.809113 53.953220,87.997696 
	C58.701885,91.186920 63.209923,93.951462 67.355309,97.181435 
	C68.406830,98.000763 68.303864,100.301781 68.731377,101.921967 
	C67.328926,101.881927 65.871979,102.061989 64.541214,101.732460 
	C63.469845,101.467163 62.551052,100.585709 61.030640,99.648529 
	C59.896324,101.192879 58.791935,102.696495 58.090000,103.652168 
	C59.767345,106.347382 61.108025,108.501640 62.448708,110.655891 
	C60.802986,111.186020 59.157272,111.716156 57.268070,112.610367 
	C57.024586,112.974442 57.022717,112.941727 57.022717,112.941727 
z"/>
<path fill="#F5E8D6" opacity="1.000000" stroke="none" 
	d="
M46.999046,113.913300 
	C50.277172,113.949501 53.555298,113.985695 56.928070,113.481812 
	C57.022717,112.941727 57.024586,112.974442 57.041733,112.974327 
	C56.639511,113.492256 55.746510,114.232086 55.870045,114.495888 
	C58.938431,121.048180 55.212402,125.124496 50.309963,129.676529 
	C48.940468,127.927383 47.768940,126.431076 46.014996,124.190903 
	C45.466461,124.275452 42.881706,125.460564 41.891300,124.663818 
	C39.787952,122.971748 36.992279,120.048950 37.261169,117.994690 
	C37.654179,114.992210 40.490528,112.309540 42.285461,109.490562 
	C43.140129,110.131699 43.994797,110.772835 44.954460,112.059456 
	C45.705990,113.107719 46.352516,113.510513 46.999046,113.913300 
z"/>
<path fill="#F5E8D6" opacity="1.000000" stroke="none" 
	d="
M316.546448,125.092621 
	C316.016632,126.540749 315.486816,127.988884 314.957031,129.437027 
	C313.907562,128.640350 312.488739,128.057541 311.879791,127.005814 
	C310.232117,124.160110 308.928558,121.115158 307.181580,117.517021 
	C313.119049,114.604370 318.702332,111.865456 324.825317,108.861801 
	C326.557190,112.270226 328.230591,115.274239 329.592133,118.413513 
	C330.019714,119.399406 329.608978,120.748894 329.581909,121.931961 
	C328.177155,121.737495 326.772369,121.543030 324.851379,121.047958 
	C323.942627,120.710861 323.550140,120.674377 323.157654,120.637894 
	C323.293213,121.223679 323.428802,121.809471 323.564362,122.395256 
	C322.344788,123.242821 321.125214,124.090393 319.534241,124.621353 
	C318.671692,123.474983 318.180511,122.645226 317.580994,121.453178 
	C316.730042,120.776398 315.987427,120.461906 315.244781,120.147415 
	C315.212402,120.843719 315.180054,121.540024 315.199738,122.557297 
	C315.683350,123.616379 316.114899,124.354507 316.546448,125.092621 
z"/>
<path fill="#F6EAD9" opacity="1.000000" stroke="none" 
	d="
M290.144836,92.943497 
	C286.309021,89.730576 284.460297,85.742325 286.603699,81.655083 
	C288.049011,78.898933 291.072815,76.213341 293.990234,75.164787 
	C298.310852,73.611908 302.166107,75.903687 304.505493,79.881409 
	C306.907990,83.966461 306.141083,87.937271 303.142426,91.425186 
	C299.986359,95.096191 295.889374,95.580185 290.144836,92.943497 
M300.684235,83.647385 
	C298.833099,82.493866 296.811157,80.244553 295.179443,80.498863 
	C293.587494,80.746971 291.854797,83.384323 291.251801,85.307579 
	C290.946472,86.281288 293.371002,89.300758 293.918884,89.144379 
	C296.183563,88.497978 298.225098,87.027596 300.287567,85.760612 
	C300.593506,85.572693 300.572815,84.853035 300.684235,83.647385 
z"/>
<path fill="#F6EAD9" opacity="1.000000" stroke="none" 
	d="
M123.038170,47.443371 
	C119.660866,45.634296 118.124207,42.980434 119.640694,39.233063 
	C121.203979,35.370022 125.442253,33.896885 131.083588,35.053146 
	C133.107956,40.505051 127.584198,38.631207 125.204170,40.754730 
	C128.735458,41.525898 131.736053,42.181175 135.182587,43.316498 
	C136.039291,44.410316 136.450073,45.024094 136.808365,45.935505 
	C136.872818,46.822086 136.989777,47.411034 137.106750,47.999981 
	C134.303207,53.561451 130.988602,55.205376 123.126236,54.547913 
	C123.126236,53.241341 123.126236,51.867496 123.607315,50.104500 
	C125.944580,49.483822 127.800774,49.252296 129.656967,49.020771 
	C129.634735,48.494972 129.612518,47.969170 129.590286,47.443371 
	C127.406250,47.443371 125.222214,47.443371 123.038170,47.443371 
z"/>
<path fill="#F6EAD9" opacity="1.000000" stroke="none" 
	d="
M260.571472,56.771484 
	C259.887726,53.154926 261.090576,50.231262 264.664032,49.309719 
	C269.925903,47.952747 273.010315,51.235840 275.859222,55.995548 
	C274.377869,56.754208 273.038818,57.439972 271.015320,58.071419 
	C270.467987,58.922207 270.605164,59.827312 270.742310,60.732422 
	C271.508362,64.470299 270.420013,67.391716 266.693146,68.724960 
	C262.983185,70.052170 258.249390,66.901352 254.825027,60.820328 
	C255.962738,60.065567 257.137238,59.286415 258.910461,58.723534 
	C260.239868,59.572983 260.970581,60.206165 261.701263,60.839344 
	C261.967377,60.629532 262.233490,60.419720 262.499603,60.209904 
	C261.856903,59.063763 261.214172,57.917622 260.571472,56.771484 
M263.027557,62.872639 
	C263.287537,62.400158 263.547516,61.927677 263.243927,60.759537 
	C262.861176,60.720570 262.478455,60.681602 262.095703,60.642639 
	C262.244202,61.255135 262.392700,61.867630 263.027557,62.872639 
z"/>
<path fill="#F5E8D6" opacity="1.000000" stroke="none" 
	d="
M212.738281,42.312923 
	C215.131607,38.753475 217.323532,35.029362 220.026749,31.723309 
	C220.981247,30.555975 223.315277,29.730467 224.777435,30.010876 
	C225.967026,30.239010 227.571777,32.306023 227.648560,33.635204 
	C227.969574,39.192558 227.783875,44.779175 227.783875,51.732697 
	C225.831741,50.134663 223.941971,49.254017 223.124695,47.779076 
	C221.455811,44.767239 219.830399,44.234821 216.882431,46.154148 
	C215.609055,46.983181 213.625702,46.721695 211.593323,46.579056 
	C211.727280,44.905991 212.232773,43.609455 212.738281,42.312923 
z"/>
<path fill="#F6EAD9" opacity="1.000000" stroke="none" 
	d="
M105.199745,66.787552 
	C103.993546,67.657921 103.034676,68.239845 101.263458,69.314766 
	C99.700470,62.882839 98.140083,57.013950 96.964333,51.068985 
	C96.772697,50.100044 98.034630,48.382980 99.073326,47.761574 
	C100.101318,47.146580 102.176170,46.874283 102.964790,47.497761 
	C107.618195,51.176746 112.030357,55.160858 117.445732,59.838676 
	C114.887367,60.741825 113.258934,61.927280 111.850372,61.706978 
	C106.118263,60.810459 105.731796,60.953018 105.199745,66.787552 
z"/>
<path fill="#F6EAD9" opacity="1.000000" stroke="none" 
	d="
M83.738663,83.118492 
	C82.660599,85.471703 81.615273,87.349648 78.205902,86.891022 
	C77.076408,86.739082 75.180016,89.263901 74.328789,90.921547 
	C73.483620,92.567390 73.512421,94.662033 73.157951,96.559860 
	C72.523216,96.579872 71.888481,96.599892 71.253754,96.619904 
	C68.229507,91.328568 65.087074,86.097969 62.304199,80.682587 
	C61.870140,79.837921 62.712719,77.702812 63.617348,76.972214 
	C64.647232,76.140457 66.625031,75.596123 67.812012,76.010918 
	C71.413239,77.269348 74.831535,79.051277 78.921013,80.885864 
	C80.926849,81.801125 82.332756,82.459808 83.738663,83.118492 
z"/>
<path fill="#EFCFB6" opacity="1.000000" stroke="none" 
	d="
M300.020874,278.001495 
	C301.005096,281.310669 301.989319,284.619843 303.214966,288.740814 
	C299.464233,288.473572 296.335083,288.250641 291.558197,287.910278 
	C295.122711,291.601715 297.608948,294.176453 300.095154,296.751160 
	C299.672913,297.214539 299.250641,297.677917 298.828400,298.141266 
	C293.997925,294.027802 289.167480,289.914337 284.337036,285.800873 
	C284.525909,285.190186 284.714783,284.579468 284.903656,283.968781 
	C289.727356,284.605621 294.551086,285.242462 300.120178,285.977692 
	C298.705444,281.931702 297.429779,278.548737 296.360107,275.101868 
	C295.890198,273.587616 294.561035,271.391327 298.474060,271.746765 
	C299.622925,272.604095 300.235779,273.081421 300.848663,273.558777 
	C304.502411,276.834595 308.156158,280.110443 311.809906,283.386292 
	C311.382050,283.887451 310.954163,284.388641 310.526276,284.889832 
	C307.697144,282.631012 304.868011,280.372162 301.567078,277.760071 
	C300.737122,277.605042 300.378998,277.803253 300.020874,278.001495 
z"/>
<path fill="#EECDB4" opacity="1.000000" stroke="none" 
	d="
M101.582962,311.169556 
	C103.107353,309.324371 104.631744,307.479187 106.554176,305.152161 
	C106.877846,309.797028 101.772118,317.570923 96.031151,322.033020 
	C90.580933,316.712280 96.648308,309.578400 92.851868,303.506927 
	C90.049362,307.081635 87.334740,310.544220 84.620117,314.006836 
	C84.091171,313.600494 83.562225,313.194122 83.033279,312.787781 
	C86.696960,307.653412 90.360649,302.519073 94.024330,297.384705 
	C94.573700,297.599274 95.123070,297.813843 95.672432,298.028381 
	C96.045593,302.068054 96.418755,306.107697 96.837891,310.965027 
	C97.116287,312.922485 97.348709,314.062256 97.832672,316.435547 
	C99.583183,313.977570 100.583069,312.573547 101.582962,311.169556 
z"/>
<path fill="#F6EAD9" opacity="1.000000" stroke="none" 
	d="
M288.458618,63.592804 
	C290.256439,65.952293 295.682922,67.093147 290.528931,71.161354 
	C289.163239,70.346268 287.907135,69.596588 286.152557,68.549400 
	C283.045654,71.965050 279.866425,75.460182 276.489410,79.172798 
	C275.159698,78.060989 274.060791,77.142174 272.557037,75.884850 
	C275.613617,72.099968 278.490875,68.537109 281.509521,64.799187 
	C280.387512,63.405861 279.385651,62.161743 278.326111,60.846001 
	C279.446594,57.633919 281.046417,56.897453 283.656860,59.456718 
	C285.077850,60.849823 286.672119,62.066154 288.458618,63.592804 
z"/>
<path fill="#D7723E" opacity="1.000000" stroke="none" 
	d="
M123.018829,318.887604 
	C122.969315,319.490051 122.919807,320.092529 122.544434,321.263489 
	C116.915176,329.250519 116.915672,329.248383 107.717079,327.125702 
	C107.401672,327.052887 107.055557,327.113190 106.809509,326.800171 
	C107.475662,324.687866 107.836861,322.777496 108.672058,321.103607 
	C114.097282,310.230194 114.131035,310.247040 123.018829,318.887604 
z"/>
<path fill="#EFCFB6" opacity="1.000000" stroke="none" 
	d="
M57.120125,253.764587 
	C59.484962,257.134979 61.929585,260.670624 63.771015,264.496613 
	C64.157158,265.298920 62.282421,268.379944 61.518150,268.354431 
	C56.072487,268.172668 55.047638,277.494171 49.452915,274.560028 
	C46.214752,272.861816 44.384018,268.364777 42.213535,264.941132 
	C42.017220,264.631470 43.824814,262.738953 44.959583,261.954407 
	C48.906883,259.225342 52.967705,256.660431 57.120125,253.764587 
M50.710899,272.644318 
	C55.615490,270.285950 55.414783,267.686310 49.606644,261.960114 
	C48.072876,262.937683 46.459816,263.965790 44.093578,265.473938 
	C46.293674,268.105682 48.137772,270.311554 50.710899,272.644318 
M57.608181,267.097839 
	C58.913120,266.119720 61.468670,264.751038 61.306309,264.231140 
	C60.606621,261.990601 59.294506,259.841125 57.756313,258.042480 
	C57.426159,257.656372 54.678852,258.466522 53.988033,259.413513 
	C51.283604,263.120819 54.906734,264.769073 57.608181,267.097839 
z"/>
<path fill="#F0D2BA" opacity="1.000000" stroke="none" 
	d="
M268.757202,304.468750 
	C272.818878,305.469147 276.493988,306.353790 280.169128,307.238434 
	C280.424225,306.923309 280.679321,306.608185 280.934418,306.293060 
	C279.645935,304.504547 278.333832,302.732452 277.075684,300.922821 
	C275.822968,299.120911 274.624451,297.281311 273.402161,295.458252 
	C273.937897,295.087982 274.473633,294.717712 275.009369,294.347443 
	C278.821625,299.377350 282.633911,304.407227 286.446167,309.437134 
	C286.135071,309.937988 285.823944,310.438873 285.512848,310.939728 
	C279.585754,309.589874 273.658661,308.240021 266.570740,306.625793 
	C269.732483,311.262512 272.166840,314.832458 274.601196,318.402435 
	C274.070801,318.783600 273.540375,319.164795 273.009979,319.545959 
	C269.207520,314.526520 265.405060,309.507050 261.602600,304.487610 
	C261.873383,304.045319 262.144196,303.603058 262.415009,303.160797 
	C264.400208,303.558197 266.385437,303.955597 268.757202,304.468750 
z"/>
<path fill="#EFCFB6" opacity="1.000000" stroke="none" 
	d="
M147.117661,324.309875 
	C157.766342,322.514679 163.911072,329.077271 160.834717,338.415619 
	C159.020355,343.923096 147.895248,346.763397 144.286118,342.509766 
	C143.620270,341.725037 143.761383,339.979218 143.988113,338.762360 
	C144.868057,334.040344 145.932846,329.352722 147.117661,324.309875 
M154.615799,341.477875 
	C158.741150,339.207550 159.930206,335.522736 158.777237,331.304626 
	C157.542572,326.787689 153.671463,326.201630 149.046997,326.140686 
	C148.052124,330.950562 147.066437,335.716034 145.916199,341.277130 
	C149.059509,341.450867 151.460083,341.583588 154.615799,341.477875 
z"/>
<path fill="#D56B36" opacity="1.000000" stroke="none" 
	d="
M145.218674,254.277618 
	C170.026611,253.897751 195.053650,253.830673 220.540619,253.861526 
	C219.250198,254.637009 217.503387,255.893463 215.748978,255.904175 
	C193.840576,256.037872 171.930969,256.018829 150.022095,255.930084 
	C148.492218,255.923904 146.965805,255.057037 145.218674,254.277618 
z"/>
<path fill="#F0D2BA" opacity="1.000000" stroke="none" 
	d="
M63.221764,289.001404 
	C62.634346,288.246155 62.160458,287.491882 62.083893,286.699280 
	C61.884232,284.632263 61.858646,282.548431 61.713936,279.384857 
	C58.286716,281.305542 56.389984,282.368530 54.493252,283.431488 
	C54.117073,282.964020 53.740898,282.496521 53.364719,282.029053 
	C58.249329,278.037384 63.133938,274.045715 68.322083,269.806000 
	C70.918434,272.753571 73.450874,275.145691 75.384300,277.950714 
	C77.602028,281.168152 73.423317,286.723236 68.606766,286.304626 
	C65.778183,286.058746 64.744362,287.211029 63.221764,289.001404 
M68.358429,273.692261 
	C66.253174,275.108582 64.147926,276.524902 61.884636,278.047546 
	C63.080986,279.715088 63.820274,280.800262 64.615456,281.842773 
	C66.372681,284.146454 68.558983,285.005310 71.013062,283.084351 
	C73.446945,281.179199 73.227074,278.844757 71.391785,276.577118 
	C70.667030,275.681641 69.843460,274.866089 68.358429,273.692261 
z"/>
<path fill="#EECDB4" opacity="1.000000" stroke="none" 
	d="
M335.838013,237.685196 
	C334.591919,238.446487 333.402893,239.710602 332.087341,239.859924 
	C329.667694,240.134491 328.971924,241.125839 327.731995,243.342651 
	C325.038177,248.158813 328.191101,250.363190 330.264740,253.670563 
	C324.432343,249.290100 317.333740,246.484741 313.633881,237.450348 
	C319.069641,237.450348 323.577881,237.450348 328.958435,237.428116 
	C331.833191,237.498978 333.835602,237.592087 335.838013,237.685196 
M322.944824,245.307297 
	C324.083710,243.905609 325.222626,242.503922 326.921906,240.412567 
	C323.278900,240.412567 321.047150,240.412567 318.815399,240.412567 
	C318.552429,240.860977 318.289459,241.309387 318.026489,241.757782 
	C319.478149,242.818375 320.929779,243.878952 322.944824,245.307297 
z"/>
<path fill="#EECDB4" opacity="1.000000" stroke="none" 
	d="
M174.538147,343.501923 
	C177.432785,344.040344 179.971100,344.826019 182.544037,344.963501 
	C183.435486,345.011108 185.030945,343.543182 185.173126,342.597321 
	C185.309021,341.693298 184.191635,340.212494 183.233047,339.624969 
	C181.856339,338.781158 180.128906,338.502045 178.542664,338.009277 
	C175.591782,337.092499 172.742462,335.373047 174.082108,332.110962 
	C174.946671,330.005707 177.747650,327.993774 180.057236,327.397095 
	C182.047073,326.883057 184.569427,328.430450 186.856339,329.066406 
	C186.702423,329.565582 186.548508,330.064728 186.394592,330.563873 
	C184.524918,330.205048 182.600586,329.401489 180.802170,329.622498 
	C179.252075,329.812958 177.845413,331.170532 176.375336,332.012146 
	C177.427521,333.266205 178.306396,334.755554 179.587372,335.698975 
	C180.590836,336.438080 182.102859,336.467651 183.370163,336.871399 
	C186.311935,337.808533 188.772186,339.436523 187.954117,342.905914 
	C187.191910,346.138458 185.488403,348.508362 181.267593,347.898132 
	C178.076813,347.436829 174.372742,348.528381 174.538147,343.501923 
z"/>
<path fill="#EFCFB6" opacity="1.000000" stroke="none" 
	d="
M332.921021,228.309723 
	C334.544739,228.999451 336.168488,229.689178 337.792206,230.378891 
	C337.756256,230.716217 337.720306,231.053528 337.684357,231.390839 
	C336.743378,231.457062 335.753235,231.745560 334.870117,231.550171 
	C331.460999,230.795883 328.080139,229.909882 324.699646,229.030869 
	C318.631348,227.452957 317.755615,226.160690 319.211578,221.049438 
	C320.438629,216.742004 324.529480,214.031174 328.250397,215.059845 
	C332.091492,216.121780 333.509338,219.263275 332.403290,224.238892 
	C332.259094,224.887512 332.159821,225.546127 332.042358,226.894135 
	C332.337006,227.828705 332.629028,228.069214 332.921021,228.309723 
M327.208923,217.295792 
	C323.035156,216.870972 322.136108,219.882538 321.890900,222.912781 
	C321.803497,223.993057 323.240784,225.991638 324.252197,226.189377 
	C325.997772,226.530609 329.048065,226.399185 329.610748,225.387253 
	C331.092743,222.722092 332.166107,219.327362 327.208923,217.295792 
z"/>
<path fill="#EFCFB6" opacity="1.000000" stroke="none" 
	d="
M66.985405,295.960022 
	C69.748550,294.808624 72.511696,293.657227 75.671913,293.052856 
	C76.864937,295.474213 77.660873,297.348541 78.456818,299.222870 
	C79.015602,299.078217 79.574387,298.933594 80.133171,298.788971 
	C80.831902,296.738281 81.530632,294.687622 82.373001,292.215363 
	C79.741173,292.517120 77.852928,292.733643 75.964676,292.950134 
	C78.693565,291.132507 81.422462,289.314880 84.151360,287.497253 
	C84.814957,288.027222 85.478554,288.557190 86.142143,289.087158 
	C83.678215,295.545105 81.214287,302.003021 78.750359,308.460968 
	C78.119202,308.508331 77.488052,308.555725 76.856895,308.603088 
	C78.482384,303.450653 78.922516,298.791565 73.253700,296.960175 
	C71.362801,297.336212 69.529572,297.700745 67.346329,297.666412 
	C66.992676,296.831696 66.989044,296.395844 66.985405,295.960022 
z"/>
<path fill="#EECDB4" opacity="1.000000" stroke="none" 
	d="
M28.716999,209.619995 
	C29.450205,203.875748 26.607010,201.019897 21.015152,200.122742 
	C21.406851,199.474960 21.798550,198.827194 22.190248,198.179428 
	C28.868601,199.995270 35.546955,201.811096 42.225307,203.626938 
	C42.334232,204.257248 42.443157,204.887558 42.552086,205.517868 
	C36.598137,208.995758 30.644192,212.473648 24.690245,215.951538 
	C24.284803,215.463562 23.879360,214.975586 23.473917,214.487595 
	C25.203241,212.991440 26.932564,211.495285 28.716999,209.619995 
M30.841030,207.458725 
	C33.080444,207.129684 35.319859,206.800644 37.559273,206.471603 
	C37.526302,205.825226 37.493328,205.178833 37.460358,204.532455 
	C35.308342,204.007446 33.156322,203.482452 30.475664,202.828476 
	C30.564705,204.539459 30.621986,205.640152 30.841030,207.458725 
z"/>
<path fill="#F0D2BA" opacity="1.000000" stroke="none" 
	d="
M336.918610,209.367661 
	C338.743530,209.815567 340.568481,210.263474 342.393402,210.711365 
	C342.306732,211.300003 342.220032,211.888626 342.133362,212.477264 
	C335.808289,211.742676 329.483246,211.008087 322.713318,210.221832 
	C322.968994,207.351257 323.055511,205.057999 323.399780,202.804092 
	C324.014099,198.782089 326.346710,196.343994 330.528290,196.787643 
	C334.700958,197.230347 336.502930,199.978394 336.140717,204.144089 
	C336.054352,205.137268 336.026642,206.135544 336.019653,207.867798 
	C336.351135,208.858627 336.634857,209.113144 336.918610,209.367661 
M333.906494,205.327148 
	C334.240906,202.493103 334.102600,199.443329 330.564484,199.396774 
	C328.911316,199.375000 326.515289,201.280960 325.782166,202.910004 
	C325.183105,204.241089 326.093842,207.625626 327.145477,208.039215 
	C329.327240,208.897186 332.780273,210.720566 333.906494,205.327148 
z"/>
<path fill="#EFCFB6" opacity="1.000000" stroke="none" 
	d="
M206.711639,338.262726 
	C200.819321,335.991150 195.939850,337.244873 193.361633,341.023163 
	C193.565125,339.371094 193.768616,337.719025 194.013626,335.729980 
	C197.453979,335.306122 201.354538,335.851990 203.754593,334.207703 
	C205.702576,332.873077 205.848984,328.908997 207.694046,325.899567 
	C208.474823,332.184021 209.255585,338.468475 210.036346,344.752930 
	C209.443359,344.890686 208.850372,345.028412 208.257370,345.166138 
	C207.781799,343.000244 207.306229,340.834351 206.711639,338.262726 
z"/>
<path fill="#EECDB4" opacity="1.000000" stroke="none" 
	d="
M28.284332,224.999542 
	C29.017504,227.898651 29.750681,230.797760 30.483858,233.696869 
	C29.820412,233.896317 29.156965,234.095764 28.493521,234.295197 
	C27.499254,230.494720 26.442274,226.708176 25.590939,222.875946 
	C25.485792,222.402634 26.370438,221.311569 26.975691,221.140305 
	C32.588688,219.551926 38.241028,218.102554 43.881950,216.612839 
	C44.101929,217.355133 44.321907,218.097427 44.541885,218.839722 
	C39.938255,220.126404 35.334621,221.413086 30.047100,222.885681 
	C29.003588,223.714249 28.643961,224.356903 28.284332,224.999542 
z"/>
<path fill="#F0D2BA" opacity="1.000000" stroke="none" 
	d="
M230.129272,325.926910 
	C233.751160,331.596313 232.890686,337.619263 228.020798,340.685242 
	C223.558655,343.494507 217.638336,342.020508 215.053925,336.608887 
	C213.860962,334.110901 214.636642,330.672729 214.966034,327.552094 
	C215.700119,327.784882 215.987900,328.126404 216.232483,328.853027 
	C216.136459,330.232178 215.937500,331.243958 216.055359,332.217407 
	C216.660751,337.217041 220.668045,340.569244 224.825241,339.637421 
	C228.832001,338.739288 230.901169,334.537750 229.699677,329.657837 
	C229.502502,328.857086 229.126358,328.100372 229.037033,327.079620 
	C229.537186,326.532928 229.833237,326.229919 230.129272,325.926910 
z"/>
<path fill="#EFCFB6" opacity="1.000000" stroke="none" 
	d="
M308.964600,260.176392 
	C308.155487,258.138031 307.509186,256.438110 306.862885,254.738235 
	C307.182617,254.599747 307.502319,254.461258 307.822052,254.322769 
	C311.660431,259.925903 315.498779,265.529022 318.757599,270.286163 
	C313.133209,269.380066 306.499146,268.311310 299.865112,267.242554 
	C299.817810,266.930573 299.770508,266.618591 299.723206,266.306610 
	C303.271454,266.077698 306.819702,265.848785 311.161743,265.568665 
	C310.405060,263.688904 309.766205,262.101898 308.964600,260.176392 
z"/>
<path fill="#F2DAC4" opacity="1.000000" stroke="none" 
	d="
M131.074982,329.176453 
	C129.978149,330.769379 128.533295,332.255859 127.994003,334.019318 
	C127.829643,334.556763 130.050690,336.061737 131.372086,336.757324 
	C133.161652,337.699341 135.136978,338.288452 137.032608,339.028961 
	C136.825974,339.578613 136.619354,340.128296 136.412735,340.677979 
	C132.557480,339.356781 128.702240,338.035614 124.330818,336.537537 
	C126.120926,330.950989 127.557350,325.877686 129.405090,320.958923 
	C130.286926,318.611420 132.069397,317.440613 133.741608,320.676697 
	C130.570175,322.696075 129.883118,325.011383 131.202667,328.272644 
	C131.125656,328.773865 131.100327,328.975159 131.074982,329.176453 
z"/>
<path fill="#EFCFB6" opacity="1.000000" stroke="none" 
	d="
M31.113682,241.827301 
	C30.986296,241.128128 30.868256,240.564575 30.991369,240.505737 
	C36.695030,237.780579 42.419712,235.099411 48.141960,232.413132 
	C48.476414,233.172958 48.810867,233.932785 49.145325,234.692612 
	C44.107258,236.800217 39.069191,238.907822 33.576557,241.205597 
	C34.702255,244.756485 35.747478,248.053513 36.792698,251.350540 
	C36.228683,251.548660 35.664669,251.746765 35.100655,251.944870 
	C33.812279,248.696030 32.523903,245.447205 31.113682,241.827301 
z"/>
<path fill="#E9B797" opacity="1.000000" stroke="none" 
	d="
M36.223701,159.221725 
	C37.379807,160.084747 38.535915,160.947754 39.692024,161.810760 
	C37.835011,163.122574 35.977993,164.434372 34.539677,165.450409 
	C32.415627,164.178741 30.883472,163.391022 29.518248,162.378265 
	C28.996210,161.990982 28.529295,161.031326 28.633867,160.437607 
	C28.738247,159.844971 29.504013,159.216324 30.129665,158.897614 
	C31.777323,158.058304 33.506351,157.378754 35.804714,156.371994 
	C35.810520,156.417358 35.943581,157.457031 35.928383,158.804626 
	C35.780128,159.112549 35.870327,159.503647 35.870327,159.503647 
	C35.870327,159.503647 36.223705,159.221725 36.223701,159.221725 
z"/>
<path fill="#F2DAC4" opacity="1.000000" stroke="none" 
	d="
M123.168488,318.717529 
	C114.131035,310.247040 114.097282,310.230194 108.672058,321.103607 
	C107.836861,322.777496 107.475662,324.687866 106.680893,326.861267 
	C106.302292,327.346802 106.175865,327.492767 106.087234,327.671509 
	C105.595924,326.563568 104.403015,325.151733 104.729507,324.398041 
	C106.568886,320.151672 108.673286,316.007568 110.929260,311.963562 
	C111.445625,311.037933 112.910225,310.106110 113.943863,310.100037 
	C117.721558,310.077759 122.373077,314.462982 123.168488,318.717529 
z"/>
<path fill="#F0D2BA" opacity="1.000000" stroke="none" 
	d="
M235.262726,325.295410 
	C235.290298,325.134033 235.376114,324.956757 235.337112,324.813538 
	C233.463043,317.933289 233.461823,317.933624 240.437714,315.706757 
	C240.916367,316.385559 240.956573,316.686981 240.710693,317.164490 
	C239.041092,318.048737 237.657578,318.756897 235.747971,319.734314 
	C237.327118,322.461975 238.661621,324.767090 240.058167,327.310059 
	C240.316727,327.997009 240.513275,328.446075 240.709824,328.895142 
	C241.203156,331.166382 241.696487,333.437622 242.189835,335.708893 
	C241.770142,335.875031 241.350449,336.041199 240.930771,336.207367 
	C239.946671,334.273590 238.962585,332.339844 237.718582,329.759735 
	C236.726685,327.840729 235.994705,326.568054 235.262726,325.295410 
z"/>
<path fill="#EECDB4" opacity="1.000000" stroke="none" 
	d="
M260.302246,316.770264 
	C258.497894,313.669037 256.885559,310.873413 255.070709,307.726654 
	C258.492310,308.039276 265.494659,319.002502 265.227753,324.487030 
	C263.649902,322.016663 262.072052,319.546265 260.302246,316.770264 
z"/>
<path fill="#D66C37" opacity="1.000000" stroke="none" 
	d="
M207.879150,34.776749 
	C206.217377,35.050507 204.425415,35.050507 202.300140,35.050507 
	C202.300140,36.870796 202.300140,38.393684 202.300140,39.916576 
	C201.942535,40.190121 201.584915,40.463665 201.227310,40.737213 
	C199.874039,39.460114 197.652237,38.337395 197.390747,36.866230 
	C197.074768,35.088596 197.904709,32.434750 199.220840,31.268322 
	C200.148270,30.446390 202.723587,31.404171 204.539307,31.709265 
	C205.140060,31.810207 205.666428,32.353863 206.597366,32.777733 
	C207.228271,33.407906 207.488617,33.955448 207.879150,34.776749 
z"/>
<path fill="#EECDB4" opacity="1.000000" stroke="none" 
	d="
M241.055328,328.774841 
	C240.513275,328.446075 240.316727,327.997009 240.364380,327.137268 
	C241.341080,326.378937 242.294144,326.214752 242.764633,325.649109 
	C244.160446,323.971039 245.366074,322.134766 246.646057,320.360352 
	C244.762970,319.236389 242.879883,318.112396 240.996796,316.988434 
	C240.956573,316.686981 240.916367,316.385559 240.815964,315.631836 
	C244.709045,313.679993 247.334229,315.520081 248.679062,318.955231 
	C250.098328,322.580536 248.617813,325.432495 245.064407,327.094177 
	C243.862762,327.656097 242.623138,328.136749 241.055328,328.774841 
z"/>
<path fill="#EECDB4" opacity="1.000000" stroke="none" 
	d="
M106.360168,327.916565 
	C106.175865,327.492767 106.302292,327.346802 106.595139,327.172546 
	C107.055557,327.113190 107.401672,327.052887 107.717079,327.125702 
	C116.915672,329.248383 116.915176,329.250519 122.478867,321.712158 
	C123.243576,327.677917 117.879654,332.334686 111.953514,330.751312 
	C110.082932,330.251526 108.401237,329.044800 106.360168,327.916565 
z"/>
<path fill="#D56B36" opacity="1.000000" stroke="none" 
	d="
M236.989014,174.831146 
	C238.726898,173.985901 240.465347,173.540665 242.556396,172.930664 
	C244.282578,173.197556 245.656174,173.629196 247.344421,174.026093 
	C245.638306,178.304169 242.084106,179.837387 237.240768,179.406158 
	C236.958252,177.902390 236.973938,176.566788 236.989014,174.831146 
z"/>
<path fill="#EECDB4" opacity="1.000000" stroke="none" 
	d="
M216.275681,328.467957 
	C215.987900,328.126404 215.700119,327.784882 215.177063,327.204834 
	C218.947403,320.628601 223.891510,320.071686 229.969055,325.609314 
	C229.833237,326.229919 229.537186,326.532928 228.755371,326.862732 
	C222.992859,322.749908 220.331055,323.100220 216.275681,328.467957 
z"/>
<path fill="#D66C37" opacity="1.000000" stroke="none" 
	d="
M168.544769,34.001183 
	C169.187729,36.993881 169.383774,39.987885 169.576675,43.429642 
	C168.531433,43.878269 167.489319,43.879147 166.143463,43.957993 
	C165.371796,40.993881 164.903854,37.951790 164.475266,34.481758 
	C165.709030,34.036709 166.903427,34.019600 168.544769,34.001183 
z"/>
<path fill="#D56B36" opacity="1.000000" stroke="none" 
	d="
M84.002968,82.848343 
	C82.332756,82.459808 80.926849,81.801125 79.259819,80.929092 
	C79.042206,78.890862 79.085716,77.065979 79.162605,74.778275 
	C81.114685,76.502541 83.033379,78.689621 85.102921,81.154907 
	C84.924927,81.814819 84.596100,82.196510 84.002968,82.848343 
z"/>
<path fill="#D66C37" opacity="1.000000" stroke="none" 
	d="
M130.361877,154.951355 
	C128.315903,157.432892 125.911674,159.945862 123.213615,162.593414 
	C123.278976,158.315140 125.602943,155.699265 130.361877,154.951355 
z"/>
<path fill="#D87441" opacity="1.000000" stroke="none" 
	d="
M131.332977,329.392639 
	C131.100327,328.975159 131.125656,328.773865 131.485016,328.192078 
	C132.548172,327.523804 133.277313,327.235992 134.006439,326.948151 
	C135.597549,327.877533 137.188675,328.806885 138.779785,329.736237 
	C138.560120,330.352234 138.340439,330.968201 138.120758,331.584167 
	C135.944153,330.925720 133.767563,330.267273 131.332977,329.392639 
z"/>
<path fill="#D56B36" opacity="1.000000" stroke="none" 
	d="
M134.036667,326.613586 
	C133.277313,327.235992 132.548172,327.523804 131.536682,327.892151 
	C129.883118,325.011383 130.570175,322.696075 133.733032,321.077057 
	C134.050476,322.821869 134.058685,324.550446 134.036667,326.613586 
z"/>
<path fill="#D66C37" opacity="1.000000" stroke="none" 
	d="
M233.643082,43.032921 
	C233.309021,44.897129 232.600311,46.794003 231.690704,48.959911 
	C229.791641,46.513344 228.989792,44.056393 233.643082,43.032921 
z"/>
<path fill="#D56B36" opacity="1.000000" stroke="none" 
	d="
M335.758209,237.330612 
	C333.835602,237.592087 331.833191,237.498978 329.406342,237.323853 
	C331.095337,234.161377 333.280762,232.895554 335.758209,237.330612 
z"/>
<path fill="#D56B36" opacity="1.000000" stroke="none" 
	d="
M139.577515,168.042755 
	C138.148941,169.889313 136.361816,171.777695 134.273941,173.793335 
	C134.250198,170.652496 135.785110,168.515106 139.577515,168.042755 
z"/>
<path fill="#D56B36" opacity="1.000000" stroke="none" 
	d="
M101.123352,311.141357 
	C100.583069,312.573547 99.583183,313.977570 97.832672,316.435547 
	C97.348709,314.062256 97.116287,312.922485 96.938019,311.391357 
	C98.216042,311.037720 99.439896,311.075409 101.123352,311.141357 
z"/>
<path fill="#D56B36" opacity="1.000000" stroke="none" 
	d="
M126.011459,178.869675 
	C125.171669,179.348709 124.285851,179.488693 123.159760,179.486206 
	C122.941864,178.507812 122.964226,177.671906 123.326660,176.417999 
	C124.111092,176.000000 124.555443,176.000000 124.999802,176.000000 
	C125.321678,176.843536 125.643562,177.687088 126.011459,178.869675 
z"/>
<path fill="#D66C37" opacity="1.000000" stroke="none" 
	d="
M212.024216,42.202385 
	C212.232773,43.609455 211.727280,44.905991 211.237747,46.555733 
	C210.665741,46.693893 210.077759,46.478848 209.225037,46.093998 
	C209.164352,44.745712 209.368408,43.567234 209.726166,42.137016 
	C210.356628,41.954136 210.833405,42.022991 212.024216,42.202385 
z"/>
<path fill="#D66C37" opacity="1.000000" stroke="none" 
	d="
M137.431671,47.914368 
	C136.989777,47.411034 136.872818,46.822086 136.843918,45.524292 
	C136.955780,44.542236 136.979584,44.269028 137.003387,43.995819 
	C137.761993,44.279331 138.520584,44.562840 139.573700,44.921555 
	C140.008804,45.406254 140.149384,45.815742 140.279861,46.551884 
	C139.432037,47.195278 138.594315,47.512012 137.431671,47.914368 
z"/>
<path fill="#D87441" opacity="1.000000" stroke="none" 
	d="
M317.003113,125.057220 
	C316.114899,124.354507 315.683350,123.616379 315.835785,122.455322 
	C316.842957,121.960075 317.266144,121.887772 317.689331,121.815460 
	C318.180511,122.645226 318.671692,123.474983 319.224121,124.591766 
	C318.676819,124.926460 318.068298,124.974136 317.003113,125.057220 
z"/>
<path fill="#D56B36" opacity="1.000000" stroke="none" 
	d="
M235.236694,325.716309 
	C235.994705,326.568054 236.726685,327.840729 237.544952,329.476807 
	C236.824356,328.605865 236.017517,327.371552 235.236694,325.716309 
z"/>
<path fill="#D56B36" opacity="1.000000" stroke="none" 
	d="
M177.985840,39.159031 
	C178.838242,39.638081 179.608658,40.416191 180.518890,41.496788 
	C179.740417,41.018883 178.822144,40.238483 177.985840,39.159031 
z"/>
<path fill="#D66C37" opacity="1.000000" stroke="none" 
	d="
M260.351624,56.922585 
	C261.214172,57.917622 261.856903,59.063763 262.499603,60.209904 
	C262.233490,60.419720 261.967377,60.629532 261.701263,60.839344 
	C260.970581,60.206165 260.239868,59.572983 259.264771,58.577698 
	C259.390839,57.834957 259.761322,57.454323 260.351624,56.922585 
z"/>
<path fill="#D66C37" opacity="1.000000" stroke="none" 
	d="
M123.087967,48.014946 
	C125.222214,47.443371 127.406250,47.443371 129.590286,47.443371 
	C129.612518,47.969170 129.634735,48.494972 129.656967,49.020771 
	C127.800774,49.252296 125.944580,49.483822 123.666290,49.722202 
	C123.208710,49.348209 123.173241,48.967365 123.087967,48.014946 
z"/>
<path fill="#D56B36" opacity="1.000000" stroke="none" 
	d="
M300.834961,273.248138 
	C300.235779,273.081421 299.622925,272.604095 298.840118,271.888702 
	C299.387238,272.079620 300.104248,272.508545 300.834961,273.248138 
z"/>
<path fill="#D66C37" opacity="1.000000" stroke="none" 
	d="
M125.103035,175.794296 
	C124.555443,176.000000 124.111092,176.000000 123.333466,176.000000 
	C122.997162,175.686005 122.992027,175.372025 122.981209,174.822739 
	C123.714577,174.506790 124.451523,174.426193 125.558197,174.378998 
	C125.687370,174.804459 125.446815,175.196518 125.103035,175.794296 
z"/>
<path fill="#D66C37" opacity="1.000000" stroke="none" 
	d="
M270.793640,60.314377 
	C270.605164,59.827312 270.467987,58.922207 270.666992,58.119282 
	C270.950470,58.779755 270.897736,59.338047 270.793640,60.314377 
z"/>
<path fill="#D56B36" opacity="1.000000" stroke="none" 
	d="
M46.881580,113.664825 
	C46.352516,113.510513 45.705990,113.107719 45.103683,112.352188 
	C45.686642,112.471741 46.225380,112.944038 46.881580,113.664825 
z"/>
<path fill="#EECDB4" opacity="1.000000" stroke="none" 
	d="
M66.753738,296.009857 
	C66.989044,296.395844 66.992676,296.831696 66.999321,297.594360 
	C66.842247,297.300720 66.682159,296.680206 66.753738,296.009857 
z"/>
<path fill="#D56B36" opacity="1.000000" stroke="none" 
	d="
M139.189545,319.030121 
	C139.082123,319.129242 138.979172,319.149170 138.876221,319.169098 
	C138.982132,319.096375 139.088074,319.023651 139.189545,319.030121 
z"/>
<path fill="#D56B36" opacity="1.000000" stroke="none" 
	d="
M28.515972,224.864349 
	C28.643961,224.356903 29.003588,223.714249 29.681046,223.055786 
	C29.581787,223.603027 29.164698,224.166077 28.515972,224.864349 
z"/>
<path fill="#D66C37" opacity="1.000000" stroke="none" 
	d="
M146.663788,44.696350 
	C146.690811,44.390720 147.243362,43.785252 148.003815,43.464466 
	C147.870926,43.964939 147.530121,44.180729 146.663788,44.696350 
z"/>
<path fill="#D56B36" opacity="1.000000" stroke="none" 
	d="
M136.737228,43.832314 
	C136.979584,44.269028 136.955780,44.542236 136.896423,45.226658 
	C136.450073,45.024094 136.039291,44.410316 135.490845,43.450848 
	C135.725815,43.293037 136.098450,43.480923 136.737228,43.832314 
z"/>
<path fill="#D66C37" opacity="1.000000" stroke="none" 
	d="
M237.946304,50.816906 
	C237.995148,50.541637 238.651199,50.217972 239.536026,50.266266 
	C239.361038,50.681652 238.957275,50.725079 237.946304,50.816906 
z"/>
<path fill="#D66C37" opacity="1.000000" stroke="none" 
	d="
M175.535110,36.967087 
	C175.537766,36.815117 175.836014,36.628227 176.277496,36.647438 
	C176.224075,36.879749 176.027390,36.905964 175.535110,36.967087 
z"/>
<path fill="#D56B36" opacity="1.000000" stroke="none" 
	d="
M136.499542,321.494507 
	C136.504868,321.512268 136.494232,321.476746 136.499542,321.494507 
z"/>
<path fill="#D56B36" opacity="1.000000" stroke="none" 
	d="
M336.787445,209.132477 
	C336.634857,209.113144 336.351135,208.858627 336.055847,208.308258 
	C336.248322,208.307358 336.452301,208.602310 336.787445,209.132477 
z"/>
<path fill="#D66E39" opacity="1.000000" stroke="none" 
	d="
M332.786560,228.081253 
	C332.629028,228.069214 332.337006,227.828705 332.031372,227.296356 
	C332.229187,227.287292 332.440674,227.570038 332.786560,228.081253 
z"/>
<path fill="#D7723E" opacity="1.000000" stroke="none" 
	d="
M300.385040,277.955475 
	C300.378998,277.803253 300.737122,277.605042 301.285614,277.606201 
	C301.233704,277.840240 300.991455,277.874847 300.385040,277.955475 
z"/>
<path fill="#D87441" opacity="1.000000" stroke="none" 
	d="
M219.606491,212.999725 
	C219.600998,218.982117 219.931610,224.497360 219.404388,229.929352 
	C219.224350,231.784210 217.122787,234.599319 215.490952,234.924011 
	C212.250839,235.568695 211.667938,232.615753 211.667068,229.917679 
	C211.663208,217.789413 211.678131,205.661118 211.649368,193.532913 
	C211.642746,190.745590 212.426346,187.937744 215.523010,188.521500 
	C217.138748,188.826096 219.263672,191.715942 219.408310,193.574341 
	C219.896774,199.850006 219.601913,206.186661 219.606491,212.999725 
z"/>
<path fill="#D87441" opacity="1.000000" stroke="none" 
	d="
M164.497162,191.930771 
	C166.163330,190.491180 167.785828,189.465500 169.408325,188.439835 
	C170.364426,190.002213 172.120316,191.549667 172.149750,193.129318 
	C172.378937,205.428207 172.272430,217.733292 172.277771,230.036453 
	C172.278976,232.824112 171.550629,235.190002 168.227219,235.098801 
	C164.851089,235.006149 164.431427,232.403198 164.429688,229.752411 
	C164.421478,217.283173 164.442749,204.813919 164.497162,191.930771 
z"/>
<path fill="#D7723E" opacity="1.000000" stroke="none" 
	d="
M180.085846,200.072876 
	C180.100418,197.260971 179.622055,194.781433 180.286087,192.659409 
	C180.812241,190.978043 182.739090,189.735031 184.043976,188.297363 
	C185.367447,189.700073 187.806213,191.076523 187.839951,192.509598 
	C188.140900,205.292542 188.141647,218.088364 187.847549,230.871582 
	C187.814148,232.323929 185.421753,233.722000 184.123199,235.145233 
	C182.787781,233.583115 180.355484,232.061447 180.296143,230.452286 
	C179.929214,220.498947 180.096130,210.525955 180.085846,200.072876 
z"/>
<path fill="#D87441" opacity="1.000000" stroke="none" 
	d="
M203.843109,218.986313 
	C203.823303,223.301926 204.184784,227.180191 203.603012,230.911346 
	C203.357849,232.483536 201.122421,233.745392 199.791687,235.148300 
	C198.499313,233.729691 196.118439,232.336273 196.084961,230.888565 
	C195.789322,218.110062 195.785690,205.319031 196.081955,192.540649 
	C196.115448,191.096008 198.534210,189.706680 199.846893,188.291687 
	C201.170059,189.889191 203.559250,191.436569 203.637070,193.092606 
	C204.034241,201.542816 203.834259,210.021057 203.843109,218.986313 
z"/>
<path fill="#D7723E" opacity="1.000000" stroke="none" 
	d="
M148.776611,224.920700 
	C148.777390,214.303024 148.794968,204.174286 148.768753,194.045685 
	C148.761368,191.191132 149.050110,188.331299 152.685806,188.377548 
	C156.176849,188.421967 156.719925,191.154053 156.712875,194.068604 
	C156.685196,205.525558 156.712753,216.982666 156.697479,228.439667 
	C156.693436,231.464325 156.924774,235.037323 152.647751,235.047668 
	C148.188980,235.058441 148.890762,231.317596 148.784363,228.398285 
	C148.748093,227.403336 148.777451,226.405960 148.776611,224.920700 
z"/>
<path fill="#D66C37" opacity="1.000000" stroke="none" 
	d="
M87.447960,65.622986 
	C87.320557,65.708427 87.267891,65.374962 87.267891,65.374962 
	C87.267891,65.374962 87.575363,65.537537 87.447960,65.622986 
z"/>
<path fill="#D66C37" opacity="1.000000" stroke="none" 
	d="
M180.214661,31.657280 
	C180.218491,31.402555 180.407806,31.341923 180.597122,31.281292 
	C180.531464,31.471319 180.465805,31.661346 180.214661,31.657280 
z"/>
<path fill="#D56A35" opacity="1.000000" stroke="none" 
	d="
M317.580994,121.453171 
	C317.266144,121.887772 316.842957,121.960075 315.783722,122.134354 
	C315.180054,121.540024 315.212402,120.843719 315.244781,120.147415 
	C315.987427,120.461906 316.730042,120.776398 317.580994,121.453171 
z"/>
<path fill="#D56A35" opacity="1.000000" stroke="none" 
	d="
M323.851868,122.089806 
	C323.428802,121.809471 323.293213,121.223679 323.157654,120.637894 
	C323.550140,120.674377 323.942627,120.710861 324.521240,120.957115 
	C324.518066,121.372704 324.328735,121.578529 323.851868,122.089806 
z"/>
<path fill="#D87441" opacity="1.000000" stroke="none" 
	d="
M300.693726,84.013382 
	C300.572815,84.853035 300.593506,85.572693 300.287567,85.760612 
	C298.225098,87.027596 296.183563,88.497978 293.918884,89.144379 
	C293.371002,89.300758 290.946472,86.281288 291.251801,85.307579 
	C291.854797,83.384323 293.587494,80.746971 295.179443,80.498863 
	C296.811157,80.244553 298.833099,82.493866 300.693726,84.013382 
z"/>
<path fill="#D66C37" opacity="1.000000" stroke="none" 
	d="
M262.541199,62.480125 
	C262.392700,61.867630 262.244202,61.255135 262.095703,60.642639 
	C262.478455,60.681602 262.861176,60.720570 263.206909,61.360836 
	C262.960297,62.134800 262.750732,62.307461 262.541199,62.480125 
z"/>
<path fill="#D66C37" opacity="1.000000" stroke="none" 
	d="
M263.488708,61.708664 
	C263.547516,61.927677 263.287537,62.400158 262.784363,62.676380 
	C262.750732,62.307461 262.960297,62.134800 263.488708,61.708664 
z"/>
<path fill="#D87441" opacity="1.000000" stroke="none" 
	d="
M50.346386,272.580872 
	C48.137772,270.311554 46.293674,268.105682 44.093578,265.473938 
	C46.459816,263.965790 48.072876,262.937683 49.606644,261.960114 
	C55.414783,267.686310 55.615490,270.285950 50.346386,272.580872 
z"/>
<path fill="#D87441" opacity="1.000000" stroke="none" 
	d="
M57.235107,267.006042 
	C54.906734,264.769073 51.283604,263.120819 53.988033,259.413513 
	C54.678852,258.466522 57.426159,257.656372 57.756313,258.042480 
	C59.294506,259.841125 60.606621,261.990601 61.306309,264.231140 
	C61.468670,264.751038 58.913120,266.119720 57.235107,267.006042 
z"/>
<path fill="#D66E39" opacity="1.000000" stroke="none" 
	d="
M154.238220,341.597076 
	C151.460083,341.583588 149.059509,341.450867 145.916199,341.277130 
	C147.066437,335.716034 148.052124,330.950562 149.046997,326.140686 
	C153.671463,326.201630 157.542572,326.787689 158.777237,331.304626 
	C159.930206,335.522736 158.741150,339.207550 154.238220,341.597076 
z"/>
<path fill="#D7723E" opacity="1.000000" stroke="none" 
	d="
M68.711655,273.853210 
	C69.843460,274.866089 70.667030,275.681641 71.391785,276.577118 
	C73.227074,278.844757 73.446945,281.179199 71.013062,283.084351 
	C68.558983,285.005310 66.372681,284.146454 64.615456,281.842773 
	C63.820274,280.800262 63.080986,279.715088 61.884636,278.047546 
	C64.147926,276.524902 66.253174,275.108582 68.711655,273.853210 
z"/>
<path fill="#D7723E" opacity="1.000000" stroke="none" 
	d="
M322.663147,245.123413 
	C320.929779,243.878952 319.478149,242.818375 318.026489,241.757782 
	C318.289459,241.309387 318.552429,240.860977 318.815399,240.412567 
	C321.047150,240.412567 323.278900,240.412567 326.921906,240.412567 
	C325.222626,242.503922 324.083710,243.905609 322.663147,245.123413 
z"/>
<path fill="#D87441" opacity="1.000000" stroke="none" 
	d="
M327.571167,217.406219 
	C332.166107,219.327362 331.092743,222.722092 329.610748,225.387253 
	C329.048065,226.399185 325.997772,226.530609 324.252197,226.189377 
	C323.240784,225.991638 321.803497,223.993057 321.890900,222.912781 
	C322.136108,219.882538 323.035156,216.870972 327.571167,217.406219 
z"/>
<path fill="#D87441" opacity="1.000000" stroke="none" 
	d="
M75.981567,292.972900 
	C77.852928,292.733643 79.741173,292.517120 82.373001,292.215363 
	C81.530632,294.687622 80.831902,296.738281 80.133171,298.788971 
	C79.574387,298.933594 79.015602,299.078217 78.456818,299.222870 
	C77.660873,297.348541 76.864937,295.474213 76.013687,293.279480 
	C75.958382,292.959015 75.998451,292.995697 75.981567,292.972900 
z"/>
<path fill="#D87441" opacity="1.000000" stroke="none" 
	d="
M30.760147,207.099777 
	C30.621986,205.640152 30.564705,204.539459 30.475664,202.828476 
	C33.156322,203.482452 35.308342,204.007446 37.460358,204.532455 
	C37.493328,205.178833 37.526302,205.825226 37.559273,206.471603 
	C35.319859,206.800644 33.080444,207.129684 30.760147,207.099777 
z"/>
<path fill="#D87441" opacity="1.000000" stroke="none" 
	d="
M333.867493,205.740417 
	C332.780273,210.720566 329.327240,208.897186 327.145477,208.039215 
	C326.093842,207.625626 325.183105,204.241089 325.782166,202.910004 
	C326.515289,201.280960 328.911316,199.375000 330.564484,199.396774 
	C334.102600,199.443329 334.240906,202.493103 333.867493,205.740417 
z"/>
<path fill="#D66E39" opacity="1.000000" stroke="none" 
	d="
M216.232483,328.853027 
	C220.331055,323.100220 222.992859,322.749908 228.551270,327.106415 
	C229.126358,328.100372 229.502502,328.857086 229.699677,329.657837 
	C230.901169,334.537750 228.832001,338.739288 224.825241,339.637421 
	C220.668045,340.569244 216.660751,337.217041 216.055359,332.217407 
	C215.937500,331.243958 216.136459,330.232178 216.232483,328.853027 
z"/>
<path fill="#D56A35" opacity="1.000000" stroke="none" 
	d="
M36.161705,159.161652 
	C36.223705,159.221725 35.870327,159.503647 35.870327,159.503647 
	C35.870327,159.503647 35.780128,159.112549 35.877899,159.047028 
	C35.975670,158.981491 36.099705,159.101593 36.161705,159.161652 
z"/>
<path fill="#D7723E" opacity="1.000000" stroke="none" 
	d="
M240.710693,317.164490 
	C242.879883,318.112396 244.762970,319.236389 246.646057,320.360352 
	C245.366074,322.134766 244.160446,323.971039 242.764633,325.649109 
	C242.294144,326.214752 241.341080,326.378937 240.302353,326.899414 
	C238.661621,324.767090 237.327118,322.461975 235.747971,319.734314 
	C237.657578,318.756897 239.041092,318.048737 240.710693,317.164490 
z"/>
</svg>